<svg xmlns="http://www.w3.org/2000/svg" xmlns:xlink="http://www.w3.org/1999/xlink" viewBox="0 0 300.47 425.2"><defs><style>.cls-1{fill:#bbbcbc;}.cls-2{fill:url(#Or_radial);}.cls-3{fill:#4c4c4b;}.cls-4{fill:#1a1a1a;}.cls-5{fill:#060505;}</style><radialGradient id="Or_radial" cx="144.02" cy="214.45" r="109.6" gradientTransform="translate(-20.89 22) rotate(-7.26)" gradientUnits="userSpaceOnUse"><stop offset="0" stop-color="#fffad2"/><stop offset="0.11" stop-color="#fcf2c1"/><stop offset="0.34" stop-color="#f3df94"/><stop offset="0.37" stop-color="#f2dc8e"/><stop offset="0.69" stop-color="#f0bf00"/><stop offset="1" stop-color="#c9961a"/></radialGradient></defs><title>Ciseaux</title><g id="Ciseaux"><path class="cls-1" d="M145.32,171c-1.4,1.65-1.73,3.16.32,4.64,2.61,1.88,4.28,4.69,6.64,6.86,1.05,1,.62,3.1,2,4.53,1.18,1.19,3.31,2.14,2.89,4.65-.13.77,1.17.17,1.78.39,0,.19,0,.42-.09.53-1.1,1.38-2.14,3.19-1.17,4.58a5.11,5.11,0,0,0,5,2.42c.63-.11.82.09,1.14.67,4.87,8.59,9,17.63,15,25.53l-.21.54c-4.64-2.61-9.54-4.84-13.31-8.78-1.79-1.87-3,.44-4.82.68-.57-.77-.54-2.55-2.45-2.18-.69.13-.41-.82-.46-1.28-.12-1.07-.27-1.79-1.71-1.82s-1.31-1.47-1.47-2.48c-.33-2.15-1.28-3.1-3.45-2-1.26.66-2.23.79-2.23-1.1,0-.17,0-.49-.1-.49-2.78-.35-3.84-3.33-5.9-4.14a5.41,5.41,0,0,1-3.36-3.53c-1.45-3.63-2.31-3.87-6.2-3.86a5.3,5.3,0,0,1-4.42-2.66,3.15,3.15,0,0,0-3.28-1.94,12.21,12.21,0,0,1-4.7-.84c-1.87-.79-2.17-3.08-2.59-4.81s-1.08-1.8-2.37-1.27a5.86,5.86,0,0,0-1.69.8c-3,2.68-5.79,1-8.5-.44-1.16-.62-1-2.23-1.6-3.31s-1-2.2-2.53-1.66c-1,.32-1-.28-1-1,0-.56-.17-1.36-.69-1.29-3,.38-1.56-1.77-1.71-2.93-.1-.78.21-1.61.13-2.4a2.43,2.43,0,0,0-3.66-1.75c-.82.54-1.56,1.21-2.38,1.75-1.39.92-3,2.22-2.86-1.06a3,3,0,0,0-.31-1c-2,.76-3-1.7-4.21-1.59-2.2.19-2.66-1-3.5-2.4a71.15,71.15,0,0,1-3.3-7c-1-2.18-2.33-2.11-4-.87-.72.53-1.46,1-2.19,1.54-1.15.81-2.2,1.25-2.87-.56a1.24,1.24,0,0,0-1.48-.86c-.94.16-1.76.12-2.14-1-.28-.85-1.11-.76-1.82-.8a4.07,4.07,0,0,1-4.06-4.3c.12-2.29-.62-2.46-2.42-1.46-1.16.64-2.63,2.57-3.54-.37-.35-1.17-3.19-.86-1.78-3.26.6-1-.67-1.22-1.48-1.12-1.37.18-1.51-.51-1.32-1.59.53-3-.17-4.12-3.05-4.28-1.29-.07-1.13-.85-1.3-1.53-1.07-4.26-3.79-7.9-4.57-12.28-.23-1.27-1.06-.78-1.45-.13a5,5,0,0,0-.67,2.27,45.32,45.32,0,0,0,7.88,27.56c4,6,8.7,11.55,12.79,17.52,3,4.29,7.25,7.41,11.79,10,8,4.51,15.71,9.52,23.45,14.47,7.51,4.79,15.61,8.65,23.31,13.11,5,2.91,10.26,5.55,15,9.11,7.76,5.83,15.1,12.24,23.44,17.33a30.92,30.92,0,0,1,9,9.09c1.93,2.79,4,5.5,5.95,8.27.73,1,1.38,1.29,2.28.17a7.17,7.17,0,0,1,1.75-1.64c1.29-.78,2.4-1.15,3.48.65,2.09,3.48,5.43,5.09,9.43,5.26,1.19.05,1.88.22,2.11,1.65.28,1.8,1.37,2.79,3.47,3a6.75,6.75,0,0,1,5.51,3.8c2.55,5.17,6.61,9,10.91,12.67,3.75,3.23,7.92,6.13,10.55,10.52a5.82,5.82,0,0,1,1.08,3c0,2.27,1.26,2.47,3,2.09s2.62-1.61,1.94-3.37c-1-2.66-2.09-5.38-4-7.55-3.25-3.67-6.56-7.26-10.71-10s-7.41-6.42-8.84-11.38c-.69-2.38-2.23-4.26-3.55-6.27-.43-.67-1.3-1.37-.27-2.32s1.41.41,2,.4c3.9-.1,5.58,3.56,8.41,5.18,3.75,2.15,8.06,3.86,11.11,6.9,2.35,2.34,5.63,3.13,7.66,5.7.21.27.6.66.83.62,3.51-.64,4,2.49,5.44,4.36,4.76,6.38,9.49,12.79,13.13,19.91a30.32,30.32,0,0,1,2.32,6c1.42,5.21,3.09,10.36,4.83,15.48,1.1,3.25,5.4,4,7.88,1.64.57-.55.38-1.07.2-1.7-1.53-5.23-1.21-10.67-1.78-16a4.43,4.43,0,0,0-.51-1.77c-2.41-4.23-3.68-8.88-5.17-13.47-2.22-6.87-6.84-12.28-11.23-17.81-2.12-2.68-3.83-5.93-6.64-7.77a47.09,47.09,0,0,0-12.53-5.5c-2.89-.86-5.43-3-7.58-5.26-1.61-1.7-3.61-2.45-5.71-3.39-3.29-1.47-7.55-1.92-8.76-6.67a14.43,14.43,0,0,0-4.28-7.3,2.21,2.21,0,0,1-.38-2.28c.79-2.88,1-6,3.67-8.08,1.34-1.06,1.2-2.28.1-3.7a206.27,206.27,0,0,1-19.23-29.68c-.83-1.57-2.24-2.38-3.27-3.66-5.41-6.77-9.3-14.44-13.26-22a152.11,152.11,0,0,0-20.64-30.57c-2.49-2.84-4.73-6-7.41-8.68a61,61,0,0,0-14.45-11c-4.7-2.54-8.81-6-13.32-8.94-2.92-1.88-5.88-2.29-9.29-2.43a85,85,0,0,0,9.55,12c1,1,2.45,1.34,1.87,3.16,0,.11.39.53.51.49,3.24-.93,2.82,1.18,2.87,3.21,0,1.35,1.59,1.83,2.32,2.8,1.17,1.57,4.54,2.44,1.92,5.51-.14.16,1.21,3,3.06,3.28,1,.15,1.79,0,1.51,1.38-.15.76.25,1.19,1,1.25s1.21.39,1,1.18c-.7,2.76.8,3.12,3.18,2.58a3.83,3.83,0,0,0,.74,3.3c1.16,1.91,2.85,3.77,1.54,6.36-.36.72.17,1.23.93,1.19s1.75-.23,2.82-.38c-.27,1.31,0,2.12,1.2,3.27,2.16,2.11,4.2,4.51,4.18,8.25,0,1.57,2.67,3.2,1,5.52,1.94.42,2.47,2.16,3.36,3.57Z"/><path class="cls-2" d="M179.21,226.36c.06-.13-.2-.4-.31-.6-6.06-7.9-10.17-16.94-15-25.53-.32-.58-.51-.78-1.14-.67a5.11,5.11,0,0,1-5-2.42c-1-1.39.07-3.2,1.17-4.58.1-.11.06-.34.09-.53-.61-.22-1.91.38-1.78-.39.42-2.51-1.71-3.46-2.89-4.65-1.42-1.43-1-3.57-2-4.53-2.36-2.17-4-5-6.64-6.86-2-1.48-1.72-3-.32-4.64.42,2.15.87,4.13,3.44,4.95.87.28.07,2.32,1.51,2.8,3.25,3.34,5.16,7.59,7.8,11.35.78,1.11,1.74.51,2.62.66l.43.82a7.66,7.66,0,0,0-.72.79c-.91,1.3-2.32,2.64-1.32,4.31s2.58,2,4.47,1.48c1.16-.29,2.22,0,1.82,1.68a2.31,2.31,0,0,0,.44,2c3.73,4.74,5.84,10.44,9.12,15.44,1.66,2.62,2.47,5.94,5.88,7.11-.7.56-.57,1.18-.16,1.84s.79.51,1.21,0c.82,2.15,2.2,2.59,4.14,1.37,1.33-.84,2.14-.24,2.7,1-4.3.53-7.84,2.31-10.08,6.19h0l-.43.86-.21.1c-.54,1.33-1.41,2.6-.82,4.16h0a.49.49,0,0,0-.2.73h0l-.13.63c.4,1,0,2,0,2.92,0,.35-.29.81-.15,1,1.57,2.64,1,6,3,8.5,1.41,1.76,2.85,2.43,4.37.1.17-.26.42-.58.84-.34,0,.09.09.18.07.25-.29,1-2.17,1.67-1.28,2.49a4.26,4.26,0,0,0,4.49.93c2-.82,3.57-2.35,5.3-3.59-.44,2.16-2.71,2.35-4.29,3.9,2.94-.56,5.22-1.47,6.85-3.63,4.7-1.51,7.39-9.35,5-13.09-2.51-4-5.08-7.85-9.22-10.35l-1.7-1.4c1.32-.74,2.2.36,3.19.82,2.89,1.32,3.78.82,4-2.41,1.21-1.11,1.15-3.05,2.61-4s1.3-1.67.31-3a234.18,234.18,0,0,1-15.46-23c-.31-2.78-2-5.94-3.63-6.77-2.6-1.3-2.42-5.14-5.71-5.21a7.83,7.83,0,0,1-.33-1.7l-.88-.73-.49-.89c.13-1.38-.82-2.33-1.44-3.37-2-3.43-4.14-6.82-6.22-10.22-2.39-4.41-4.08-9.18-6.89-13.38-1.27-3.1-3.62-5.43-5.64-8-.55-3-3.22-4.6-4.88-6.86-1.45-2-2.78-4.15-5-5.49-.33-.2-.31-1-.46-1.48a49.76,49.76,0,0,0-11.76-11.27c-1.44-2.31-3.81-3.43-6-4.71-3.39-1.93-6.94-3.61-10-6.15.48-1.31-.65-.85-1.18-1.06h0c-2.09-1.5-4.15-3-6.28-4.47a5.67,5.67,0,0,0-2.21-.84c-1.37-.22-1.79.26-1.12,1.64a20,20,0,0,0,4.69,5.76c2.23,2.07,4,4.64,6.75,6.18.33.19.78.83.68,1-1.2,2.49,1,3.27,2.25,4.45,1.8,1.7,3.5,3.34,2.5,6.19a1.67,1.67,0,0,0,1,2c3.11.82,4.4,3.17,5.34,5.9,0,.16.08.42.19.47,4.15,2,4,6.53,5.83,9.89.85,1.57,2.09.18,3,.79-.31,1.93.85,3.23,2,4.56.57.86,1.49,1.47,1.75,2.54,1.29,2.18.82,5.26,3.46,6.74.18.36.37.71.56,1.06-.41,1.4-1.1,2.79.86,3.75.7.35-.29,1.53.47,2.13-.16.39.25,1.11-.64,1.06-.89-1.41-1.42-3.15-3.36-3.57,1.69-2.32-1-3.95-1-5.52,0-3.74-2-6.14-4.18-8.25-1.16-1.15-1.47-2-1.2-3.27-1.07.15-1.94.35-2.82.38s-1.29-.47-.93-1.19c1.31-2.59-.38-4.45-1.54-6.36a3.83,3.83,0,0,1-.74-3.3c-2.38.54-3.88.18-3.18-2.58.21-.79-.26-1.12-1-1.18s-1.17-.49-1-1.25c.28-1.39-.54-1.23-1.51-1.38-1.85-.28-3.2-3.12-3.06-3.28,2.62-3.07-.75-3.94-1.92-5.51-.73-1-2.29-1.45-2.32-2.8-.05-2,.37-4.14-2.87-3.21-.12,0-.55-.38-.51-.49.58-1.82-.85-2.16-1.87-3.16a85,85,0,0,1-9.55-12c3.41.14,6.37.55,9.29,2.43,4.51,2.9,8.62,6.4,13.32,8.94a61,61,0,0,1,14.45,11c2.68,2.73,4.92,5.84,7.41,8.68a152.11,152.11,0,0,1,20.64,30.57c4,7.6,7.85,15.27,13.26,22,1,1.28,2.44,2.09,3.27,3.66A206.27,206.27,0,0,0,201.61,220c1.1,1.42,1.24,2.64-.1,3.7-2.65,2.09-2.88,5.2-3.67,8.08a2.21,2.21,0,0,0,.38,2.28,14.43,14.43,0,0,1,4.28,7.3c1.21,4.75,5.47,5.2,8.76,6.67,2.1.94,4.1,1.69,5.71,3.39,2.15,2.28,4.69,4.4,7.58,5.26a47.09,47.09,0,0,1,12.53,5.5c2.81,1.84,4.52,5.09,6.64,7.77,4.39,5.53,9,10.94,11.23,17.81,1.49,4.59,2.76,9.24,5.17,13.47a4.43,4.43,0,0,1,.51,1.77c.57,5.34.25,10.78,1.78,16,.18.63.37,1.15-.2,1.7-2.48,2.4-6.78,1.61-7.88-1.64-1.74-5.12-3.41-10.27-4.83-15.48a30.32,30.32,0,0,0-2.32-6c-3.64-7.12-8.37-13.53-13.13-19.91-1.4-1.87-1.93-5-5.44-4.36-.23,0-.62-.35-.83-.62-2-2.57-5.31-3.36-7.66-5.7-3.05-3-7.36-4.75-11.11-6.9-2.83-1.62-4.51-5.28-8.41-5.18-.56,0-1-1.28-2-.4s-.16,1.65.27,2.32c1.32,2,2.86,3.89,3.55,6.27,1.43,5,4.69,8.6,8.84,11.38s7.46,6.37,10.71,10c1.92,2.17,3,4.89,4,7.55.68,1.76-.08,3-1.94,3.37s-3,.18-3-2.09a5.82,5.82,0,0,0-1.08-3c-2.63-4.39-6.8-7.29-10.55-10.52-4.3-3.71-8.36-7.5-10.91-12.67a6.75,6.75,0,0,0-5.51-3.8c-2.1-.23-3.19-1.22-3.47-3-.23-1.43-.92-1.6-2.11-1.65-4-.17-7.34-1.78-9.43-5.26-1.08-1.8-2.19-1.43-3.48-.65a7.17,7.17,0,0,0-1.75,1.64c-.9,1.12-1.55.87-2.28-.17-2-2.77-4-5.48-5.95-8.27a30.92,30.92,0,0,0-9-9.09c-8.34-5.09-15.68-11.5-23.44-17.33-4.74-3.56-10-6.2-15-9.11-7.7-4.46-15.8-8.32-23.31-13.11-7.74-5-15.43-10-23.45-14.47-4.54-2.55-8.84-5.67-11.79-10-4.09-6-8.75-11.5-12.79-17.52a45.32,45.32,0,0,1-7.88-27.56,5,5,0,0,1,.67-2.27c.39-.65,1.22-1.14,1.45.13.78,4.38,3.5,8,4.57,12.28.17.68,0,1.46,1.3,1.53,2.88.16,3.58,1.29,3.05,4.28-.19,1.08-.05,1.77,1.32,1.59.81-.1,2.08.1,1.48,1.12-1.41,2.4,1.43,2.09,1.78,3.26.91,2.94,2.38,1,3.54.37,1.8-1,2.54-.83,2.42,1.46a4.07,4.07,0,0,0,4.06,4.3c.71,0,1.54-.05,1.82.8.38,1.13,1.2,1.17,2.14,1a1.24,1.24,0,0,1,1.48.86c.67,1.81,1.72,1.37,2.87.56.73-.51,1.47-1,2.19-1.54,1.68-1.24,3-1.31,4,.87a71.15,71.15,0,0,0,3.3,7c.84,1.42,1.3,2.59,3.5,2.4,1.23-.11,2.24,2.35,4.21,1.59a3,3,0,0,1,.31,1c-.11,3.28,1.47,2,2.86,1.06.82-.54,1.56-1.21,2.38-1.75a2.43,2.43,0,0,1,3.66,1.75c.08.79-.23,1.62-.13,2.4.15,1.16-1.27,3.31,1.71,2.93.52-.07.71.73.69,1.29,0,.71,0,1.31,1,1,1.58-.54,1.93.63,2.53,1.66s.44,2.69,1.6,3.31c2.71,1.44,5.51,3.12,8.5.44a5.86,5.86,0,0,1,1.69-.8c1.29-.53,1.94-.48,2.37,1.27s.72,4,2.59,4.81a12.21,12.21,0,0,0,4.7.84,3.15,3.15,0,0,1,3.28,1.94,5.3,5.3,0,0,0,4.42,2.66c3.89,0,4.75.23,6.2,3.86a5.41,5.41,0,0,0,3.36,3.53c2.06.81,3.12,3.79,5.9,4.14.05,0,.1.32.1.49,0,1.89,1,1.76,2.23,1.1,2.17-1.12,3.12-.17,3.45,2,.16,1,.11,2.44,1.47,2.48s1.59.75,1.71,1.82c0,.46-.23,1.41.46,1.28,1.91-.37,1.88,1.41,2.45,2.18,1.81-.24,3-2.55,4.82-.68,3.77,3.94,8.67,6.17,13.31,8.78C178.86,226.42,179.07,226.7,179.21,226.36Zm-76.52-45.62c-.56-.4-1.06-.06-1.56.15-2,.05-1.71-1.4-1.76-2.63-1.09-.25-2.52.29-3-1.32h0l.3-.78a9.88,9.88,0,0,0,.13-1.06c0-1.4.55-3.09-.87-4s-1.82,1-2.83,1.48c-2,.87-3.81,2.81-5.11-1.07-.26-.77-3-2.07-4.84-2.35a2.81,2.81,0,0,1-2.41-1.39c-1.18-2.54-2.34-5.1-3.57-7.62-.49-1-1-2.27-2.53-1.18-.94.5-1.9,1-2.82,1.52-1.33.81-2.56,1.39-3.45-.57A1.29,1.29,0,0,0,67,159.2c-1.22.13-2.26.2-2.64-1.4-.15-.62-1-.65-1.64-.6-3,.28-4.05-2-4.58-4.15-.43-1.66-.81-1.69-2-1-1.48.9-2.8,1.4-3.34-1-.2-.88-1.48-.95-1.71-1.5-.84-2-2.93-3-3.68-5l-.06-1.21c.18-1.89-.82-2.45-2.51-2.24-.88-.12-1.47-.41-1.38-1.52a7.2,7.2,0,0,0-.91-3.58c-.3-.66-.53-1.79-1.49-1.53s-.7,1.23-.71,2.05c0,2.46,1.21,4.39,2.34,6.39.35.62.75,1.21,1.13,1.81-1.48.14-1.69-1.35-2.78-2.24a25.1,25.1,0,0,0,4.52,9.12c-.68-2-.44-4.16-.77-6.21l.76.18.73,1.42c-1.24,2.66.85,4.38,1.8,6.42l-.76-.2c-.25-.32-.48-.81-1-.41-.11.1.1.59.16.9a138.8,138.8,0,0,0,16.35,22,32.16,32.16,0,0,0,9.44,6.94c4.77,2.42,8.94,5.86,13.82,8.09a1.81,1.81,0,0,0,.34.28c2.73,1.9,5.22,4.2,8.43,5.35,2.08,1.87,4.81,2.63,7.06,4.2l1.64.91c.26-.58-.22-.95-.4-1.4.53,1,3.33-.6,2.36,2.08.52,1.22,1.77,1.44,2.77,1.95,4.86,2.46,9.5,5.28,14.2,8,4.28,2.5,8.76,4.63,12.61,7.82,1.11.92,1.67-.42,3.07-.75-1.55,2.06-.49,2.71.79,3.73,5,4,9.95,8.17,15.48,11.47a37.77,37.77,0,0,1,12.19,12.16,39.71,39.71,0,0,0,3.95,5.06c.54.58,1,1.35,2,.72,3.31-2,3.34-2.42.25-4.71-1-.77-2.12-1.27-.9-2.85s-1.71-1.73-1.41-3.28c1.08-.25,2.62.77,3.24-.82.5-1.28-.55-2.11-1.17-3.07a5.38,5.38,0,0,1,2.44-8.27c1-.43,2-.73,3-1.08l.16.06-.17,0c-1.65-2.67-4.68-3.4-7.11-5a21,21,0,0,1-4.88-3.64c-1.17-1.37-2.22-1.5-3.66-.59s-2.78,1.29-3.23-1.12c-.2-1-1.27-.72-2-.82-.66-2.77-3.78-4-4.21-7.07-.2-1.43-1.52-.61-2.38-.2-1.4.39-2.6.48-3-1.4-.28-1.22-1.77-1-2.49-1.74l-.72-.23-.34-.43c-.59-1.23-.91-2.71-2.85-2.45-.77.11-1.18-.63-1.6-1.19-.69-1.24-1.41-2.46-2.07-3.71-.91-1.77-1.7-3.37-4.11-1.54-1.29,1-1.92-1.8-3.45-1.09h0c-.76-1-1.59-1.91-2.27-3a1.61,1.61,0,0,0-2.23-.79c-1.33-.29-2.59-1.8-4-.15a.68.68,0,0,1-1.12-.25c-.46-1.63-2.29-1.17-3.13-2.18.32-.81,1-1.51.71-2.49-.74-2.37-1.46-2.63-3.79-1.38l-.71.39c-2.32,1.31-4.61,2.34-6.54-.61-1.84.15-2.59-1.11-3.23-2.51l-1-1.82,0,0C102.62,181.2,102.66,181,102.69,180.74Zm126.5,83.17c.64-.69,2.11-1.33,1.4-2.4a2.26,2.26,0,0,0-3.31-.37,4.89,4.89,0,0,1-.09-1c.07-.54.74-1.2-.18-1.52a1.41,1.41,0,0,0-1.72.85c-.56,1.07-.86,2.32-2.15,2.82,0-1.32,1.78-2.87.35-3.84-2-1.39-3.77-3.83-6.82-3,.08-.52.12-1,.24-1.55a1,1,0,0,0-.63-1.27c-.64-.28-1,.14-1.3.58-.69,1-1.36,2-2,3-1.95-1.25-2.58.74-3.11,1.65s.67,1.12,1.53,1a1.71,1.71,0,0,0,1.37,1.95c1,.13,1.09-.95,1.43-1.6.7-1.37,1-3,2.52-3.83a3.27,3.27,0,0,1-.56,2c-1.89,4.11-.9,5.94,3.7,6.78.08,0,.18-.08.25-.05,2.33.75,2.33.75,3-1.74.93,1.25.48,2.53.12,3.83-.16.58-.51,1.26.15,1.72.87.61,1.18-.47,1.79-.7a1.83,1.83,0,0,0,.4-.05s0-.13,0-.21A11.5,11.5,0,0,0,229.19,263.91Zm31.54,53.73a35.26,35.26,0,0,1-.65-4.24c-.54-3.78-.52-3.6-4.38-3.26-2.33.21-2.25,1.12-1.79,2.9.56,2.14,1.91,3.95,2.28,6.17.2,1.18,1.13,1.53,2.24.81h0C260.36,320.37,261.33,319.88,260.73,317.64Zm-68-56c4.12.67,6.68,3.08,8.41,6.72a23.73,23.73,0,0,0,6.61,8c4.26,3.52,8.32,7.26,12.23,11.16.55.55,1.16,1.09,1.83.56.94-.76.06-1.47-.39-2a68.64,68.64,0,0,0-10.75-10.26,30.64,30.64,0,0,1-10.1-13.53,19.74,19.74,0,0,0-2.49-3.78c-.93-2.1-2-3.07-4.07-1-.61.64-1.74.79-2.63,1.16C190.57,260.18,191,261.35,192.69,261.62ZM246,275.77c-.41-.58-.8-1.23-1.68-.74a26.79,26.79,0,0,0-4.88-7.82c-1.23-1.49-2.47-1.5-3.79,0s-2.83,2.38-3.62,3.9c-1.19,2.27,1.71,2.67,2.55,4.08a63.68,63.68,0,0,0,8,11.31c1.46,1.65,1.92,4,3.68,5.43l.45.76c.47,3.31,2.64,5.95,3.64,9.08.31,1,1.48.68,2-.36,4.47-3,4.42-3,3-8.3-1-3.6-2-7.15-4.33-10.19Zm-15.05-5.44c1.66-1.61,3.34-3.19,5-4.83.57-.57,1.81-1.23.84-2.09s-2.3-2.8-3.79-1.6a80.22,80.22,0,0,0-6.77,6.78.69.69,0,0,0,0,1A3,3,0,0,0,230.94,270.33Zm26.92,33.33c2-.86,1.36-2.06.56-3.39-1-1.67-1.79-.66-2.72.08-1.09.89-2.25,1.71-3.41,2.52a2.19,2.19,0,0,0-.83,3.2c.92,1.42,1.81-.06,2.69-.35a10,10,0,0,0,1.63-.89h0A21.33,21.33,0,0,1,257.86,303.66Zm-51.35-48.34c-.66.67-.49,1.17.06,1.82s1.06.56,1.75,0c2-1.52,3.54-3.55,5.81-4.72.64-.33.88-.86.25-1.5-.87-.87-1.76-1.61-3.08-.68C209.71,252,208.13,253.66,206.51,255.32Zm-3-1.2a1,1,0,0,0,.38.87c.64.42,1.18,0,1.64-.41,1.28-1.25,2.52-2.51,3.83-3.71.59-.55,1.13-1,.23-1.66-.75-.53-1.37-1.48-2.56-1A32,32,0,0,0,203.54,254.12ZM253,308.49c.31,1.21,1.5.61,2.3.56a24.47,24.47,0,0,0,3.7-.55,1.23,1.23,0,0,0,.94-1.43c0-.86-.6-1-1.28-1-1.42.08-2.89-.16-4.16.76C253.91,307.29,252.8,307.56,253,308.49ZM202.89,252.8c.93-1.4,1.81-2.83,2.69-4.27.35-.58.49-1.2-.27-1.57s-1.41-.52-1.86.31c-.79,1.48-1.52,3-2.25,4.51a3,3,0,0,0-.14.91C201.73,253.45,202.36,253.59,202.89,252.8ZM222.05,289c-1.24.46-.37,1.26-.14,1.93a1.23,1.23,0,0,0,.24.47c.73.71-.17,3.18,1.81,2.26,1.45-.67.19-2.3,0-3.31C223.44,289.41,223,288.59,222.05,289ZM39.5,129.58c-.3,1.74.1,2.92.57,4.85C41.29,132.22,40.36,131.15,39.5,129.58Z"/><path d="M174.61,212.41c-1-2.39-2.55-4.32-1.69-7.44.73-2.68-2.14-3.69-4.35-4.52.51-.41.77-.91.35-1.51s-.82-.14-1.18.16c-1.11-1.91-1.51-4.39-4.36-4.81-.83-.12-.69-1.35-1.17-2a11,11,0,0,0,.08-4.91c-.88-4.38-.78-4.4-5.1-5.21a8.53,8.53,0,0,1-1.47-6.58,3.78,3.78,0,0,0-1.05-3.4l.05-1v0l.22-.77,0,0c1.43-.46,1.71.46,1.73,1.53s.56.8,1.15.5l2.62-1.16c-.79,1.81-2.43,3-1.6,4.6s.94,4.82,4.12,2.12a1.71,1.71,0,0,1,2.24.1,5.48,5.48,0,0,0,4.76,1.84c.65,0,.94.37,1.1.93.45,1.52,1.55,1.48,2.77,1.14l.49.89c-.21.84.19,1,.88.73a7.83,7.83,0,0,0,.33,1.7c3.29.07,3.11,3.91,5.71,5.21,1.67.83,3.32,4,3.63,6.77l-1.35.81c-1,0-2,.41-2.92-1.09.65,2.71.72,2.73,3,1.54a53.13,53.13,0,0,0,9.19,14.66A55.12,55.12,0,0,1,200,223.43c-1.46.95-1.4,2.89-2.61,4-2,0-4,0-6.07-.11-.78,0-1.42-.2-1.68.74l-.94.54v0c-.56-1.25-1.37-1.85-2.7-1-1.94,1.22-3.32.78-4.14-1.37v0a1.41,1.41,0,0,0-1.06-1.91h0c-3.41-1.17-4.22-4.49-5.88-7.11C176.68,215.54,175.25,213.91,174.61,212.41Zm4.73,8.6.1-.17a1.2,1.2,0,0,0,.68-1c.35-.31.66-1,.23-1.06-1.79-.34-2.48-1.78-3.56-3.6a6,6,0,0,0,3.31,4.65l-.67,1Z"/><path d="M96.34,176.93h0c-1.44,2.56-4.36,3.92-5.49,6.73l-.21.73a1.73,1.73,0,0,0-1.08,1.7c0,.61-.19,1.35.36,1.76.73.54,1-.31,1.52-.64,2.12-1.51,4.65-2.61,5.79-5.84a17.39,17.39,0,0,0-4.32,2.7c-.67.67-1.35,1.26-2.26.33l.21-.73c3.52-.72,6.07-3,8.49-5.42,0,1.23-.22,2.68,1.76,2.63-1.32,2.18-4.49,2.38-5.32,5.15,2.12-1.79,5.57-1.47,6.81-4.58l1,1.83c-1.2.73-.62,1.88-.72,2.9s.2,2-.56,2.87c-.75-.77-.35-1.7-.47-2.53s.55-2.06-.84-2.1a1.89,1.89,0,0,0-2.06,2,3.63,3.63,0,0,1-2,3c-1.2.82-2.83.67-3.32-.4-.63-1.37-1-1.54-2.17-.79-1.54,1-.05,1.6.16,2.38l0,.19.06-.19c2.3-.69,3.49.65,4.43,2.43-.07.27-.15.53-.22.79-2.28.27-4-1-5.32-2.46s-2.65-1.39-4.09-.26a1.81,1.81,0,0,1-.34-.28c1.31-1,3.36-1.44,2.07-4.06-.45-.9-3.08-.71-1.46-2.63-.34,0-.86-.13-1,0-2.35,3.1-4.78.73-7.13.07a5.92,5.92,0,0,1-2-1.37c-2.62-2.26-5.19-4.53-8.63-5.59a3.85,3.85,0,0,1-2-2c-1.28-3.12-4.69-4.2-6.37-6.9.07-1.49-1.38-2.54-1.18-4.07.66-1.19.31-1.83-1.06-1.9-.38-.69-.86-1.19-1.75-.84h0a46.85,46.85,0,0,0-5.91-7.12c-1-2.52-.53-5.76-3.47-7.38-.24-.47-.48-.95-.73-1.42l1.86-1c.75,2,2.84,3,3.68,5,.23.55,1.51.62,1.71,1.5.54,2.38,1.86,1.88,3.34,1,1.19-.72,1.57-.69,2,1,.53,2.12,1.56,4.43,4.58,4.15.63,0,1.49,0,1.64.6.38,1.6,1.42,1.53,2.64,1.4a1.29,1.29,0,0,1,1.32.76c.89,2,2.12,1.38,3.45.57.92-.55,1.88-1,2.82-1.52.52,2.68,3.35,4.42,3,7.48a8.94,8.94,0,0,1-.5,2.6c-.28.65-.55,1.51.27,1.9s1.54-.23,2-.91.53-1.72,1.34-2.27a2.81,2.81,0,0,0,2.41,1.39c1.88.28,4.58,1.58,4.84,2.35,1.3,3.88,3.13,1.94,5.11,1.07,1-.44,1.53-2.27,2.83-1.48s.92,2.55.87,4a9.88,9.88,0,0,1-.13,1.06Zm-20.23-3.34a1.26,1.26,0,0,0-.78,1.72,1.52,1.52,0,0,0,2,.89,1.44,1.44,0,1,0-1.18-2.61Z"/><path d="M144.37,206.61c-.11-.15-.23-.29-.34-.43-.57.75-2.56-.77-2.2,1.23a25.43,25.43,0,0,1-.06,3.39c.17,3.35-.39,3.85-3.48,3.53.23.6.54,1.2.1,1.83-.43,3.48,1.27,6.47,4,6.29,2-.13,2.57.79,3,2.27,1.2.63,1.33,2,2.12,2.94l0,0c3.06-.44,6-.49,7.53,2.92,0,.07.16.08.24.12.77-.43,1.52-.91,2.32-1.28,3.32-1.49,5.72.07,5.43,3.53a4,4,0,0,0,.74,2.76,2.58,2.58,0,0,1-.06,3.17c1.9.33,3.17,1.1,2.49,3.37a1.85,1.85,0,0,0,.55,2c2.95,2.07,3.27,6,5.89,8.24,3.31-2,3.34-2.42.25-4.71-1-.77-2.12-1.27-.9-2.85s-1.71-1.73-1.41-3.28c1.08-.25,2.62.77,3.24-.82.5-1.28-.55-2.11-1.17-3.07a5.38,5.38,0,0,1,2.44-8.27c1-.43,2-.73,3-1.08v0c-1.65-2.67-4.68-3.4-7.11-5a21,21,0,0,1-4.88-3.64c-1.17-1.37-2.22-1.5-3.66-.59s-2.78,1.29-3.23-1.12c-.2-1-1.27-.72-2-.81-1.34.22-5.16-2.73-5.14-4.3a4,4,0,0,0-1.45-3c-1.4.39-2.6.48-3-1.4-.28-1.22-1.77-1-2.49-1.74Z"/><path d="M137.53,147c.74,0,1.53.52,2.42-.36a8.27,8.27,0,0,1-4.09-3.58c-.46-.76-1.06-1.24-2-.56-.14-2.71.76-5.57-1.12-8l.21-.65-1,.35h0c-1-1.25-1.21-3.35-3.55-3h0l-1.86-3.32v0l-.06-1.24v0l.21-.76v0c.81-1.89.12-2.5-1.78-2.07h0a3.4,3.4,0,0,0-2.27-1.83h0a26,26,0,0,0-3.64-5.43c-.47-.58-.9-1.07-1.73-.81h0l-.77-.22,0,0c-.21-.29-.4-.72-.79-.17-1.41-1.5-3.17-2.89-1.62-5.3h0l1.18,1.06c3,2.54,6.57,4.22,10,6.15,2.24,1.28,4.61,2.4,6,4.71-.89.77-1.2,1.42,0,2.28a8.28,8.28,0,0,1,3.35,4.57c.91,3,6,5.48,8.39,4.42.15.51.13,1.28.46,1.48,2.23,1.34,3.56,3.51,5,5.49,1.66,2.26,4.33,3.83,4.88,6.86-1.53,1.65-.89,3.75-.2,5.16a47.08,47.08,0,0,1,3,8.75c-.92,1.26.62,3-.73,4.14l-2,.1c-.26-1.15,1.42-1.28.85-2.56-1,1.12-2.6-1.2-3.54.79-2.33-2.68-5.83-4.39-6.54-8.38-.3-1.71-2.2-2.16-3.31-3.25-.24-.24-.4.4-.43.73l-1.82,1.08c-1.11-1.33-2.27-2.63-2-4.56A3.81,3.81,0,0,0,137.53,147Zm6.25-1.3c-1.19-.52-1.65.24-2.51.63A2.16,2.16,0,0,0,143.78,145.68Z"/><path class="cls-3" d="M138.29,214.33c3.09.32,3.65-.18,3.48-3.53a25.43,25.43,0,0,0,.06-3.39c-.36-2,1.63-.48,2.2-1.23-.59-1.23-.91-2.71-2.85-2.45-.77.11-1.18-.63-1.6-1.19-.77,1.21-2.64,1.5-2.69,3.37,0,.68-.77.66-1.27.52-.68-.2-.64-.81-.42-1.31.32-.72.78-1.38,1.14-2.09,1.07-2.11.19-3.79-2.05-3.47-2.83.41-3.88-1-4.34-3.36h0c-2.88.85-4.36,3.9-2.89,6,.55-.83,1.21-1.31,2.22-.74.58.3,1.2.56.86,1.62l-1-1.23c-1-.2-.54,2.62-2.2,1.07-1.37.43-2.17,1.8-3.61,2.16-1.86.46-3.07-.46-2.29-2.1s.18-1.61-1-2.16c-2-1-1.13-2.71-.5-4.1.78-1.7,1.76-.43,2.52.11s1,.31,1.65-.3c1.25-1.15,1.2-2.69,1.77-4-1.33-.29-2.59-1.8-4-.15a.68.68,0,0,1-1.12-.25c-.46-1.63-2.29-1.17-3.13-2.18l-.72,1c.89,3.81.48,4.35-3.08,4-.86-.1-1.47.48-2.19.77a4.23,4.23,0,0,1-.62,3.05,2.38,2.38,0,0,1-2.81.93,3,3,0,0,1-1.27-3.05c.88-3.33-1.12-6.81.65-10,.08-.15-.19-.48-.29-.72-1.84.15-2.59-1.11-3.23-2.51-1.2.73-.62,1.88-.72,2.9s.2,2-.56,2.87c-.75-.77-.35-1.7-.47-2.53s.55-2.06-.84-2.1a1.89,1.89,0,0,0-2.06,2,3.63,3.63,0,0,1-2,3c-1.2.82-2.83.67-3.32-.4-.63-1.37-1-1.54-2.17-.79-1.54,1-.05,1.6.16,2.38h0c2.3-.69,3.49.65,4.43,2.43h0c1.7-1.06,2.71-.9,4.07,1a23.46,23.46,0,0,1,3,6.12h0c.53,1,3.33-.6,2.36,2.08,1.64-.26,3.1.71,4.71.71l.77.21H111l.77.22h0a1.05,1.05,0,0,1,1.22-.05h0l.76.22h0c1.52-1.14,2.67-.72,3.78.71,1.49,1.93,3.13,3.75,4.71,5.62h0l.76.21h0l.76.21h0a2.06,2.06,0,0,1,2,1.36h0l.76.21h0c1.92-1.51,3.21-1,4.41,1.08s3.17,2.47,5.38,2.06h0c.12-.89.59-1.15,1.41-.79h0Z"/><path class="cls-3" d="M178.63,234.81h0a30.24,30.24,0,0,1,8.28-4.68c1.13-.36,2.28-1.23,2.24,1a1,1,0,0,0,1,1.09c1.23.09,1.12-1.22,1.73-1.78,4.14,2.49,6.71,6.39,9.22,10.34,2.37,3.74-.32,11.58-5,13.09l-.08-.23a1.33,1.33,0,0,0-1.1-.82h0c-.79-.31-1.27,0-1.42.8v0c-1.73,1.24-3.28,2.77-5.3,3.59a4.26,4.26,0,0,1-4.49-.93c-.89-.82,1-1.53,1.28-2.49,0-.07,0-.16-.07-.25-.42-.24-.67.08-.84.34-1.52,2.33-3,1.66-4.37-.1-2-2.47-1.44-5.86-3-8.5-.14-.23.15-.69.15-1,0-1,.41-1.94,0-2.92,0-.21.09-.42.13-.63h0c.07-.25.13-.49.2-.73h0c2-1.05,1.48-2.59.82-4.16l.21-.1C178.34,235.39,178.49,235.1,178.63,234.81Zm3.69,16.43,1.77-.78c1.43.76,1.79-.19,2.06-1.28a4.26,4.26,0,0,1,.63-2.79c-5.27.21-5.27.21-4.48,4.85l-.85.61c-.24.38-.91.76-.49,1.15s.63-.31.71-.74Zm.76-16.67a1.82,1.82,0,0,0-.41,2.63c.59.85,1.42,1.86,2.63,1.05,1-.68,1.11-1.76.43-2.93C185.05,234.55,184.23,233.74,183.08,234.57ZM197,245.43c.42,1,1.16,1.66,2.3,1.12s1-1.74.64-2.77a1.58,1.58,0,0,0-2.24-1.15C196.45,243.35,196.53,244.38,197,245.43Z"/><path class="cls-3" d="M244.31,275a26.79,26.79,0,0,0-4.88-7.82c-1.23-1.49-2.47-1.5-3.79,0s-2.83,2.38-3.62,3.9c-1.19,2.27,1.71,2.67,2.55,4.08a63.68,63.68,0,0,0,8,11.31c1.33-.25,3.16-.09,3.22,1.11.07,1.46.7,2.85.46,4.32l.45.76c1,.25,1.3,1.11,1.73,1.87l3.92,6.85c4.47-3,4.42-3,3-8.3-1-3.6-2-7.15-4.33-10.19A11.84,11.84,0,0,1,244.31,275Z"/><path class="cls-3" d="M133.9,142.48c-.14-2.71.76-5.57-1.12-8l-.76-.3h0c-1.68-.4-2.33-2-3.55-3h0a3,3,0,0,1-1.86-3.32v0a1,1,0,0,1-.06-1.24v0l.21-.76v0l-1.78-2.07h0c-1.6.43-1.7-1-2.27-1.83h0a32,32,0,0,1-5.37-6.24h0l-.77-.22,0,0-.79-.17c-1.41-1.5-3.17-2.89-1.62-5.3-2.09-1.5-4.15-3-6.28-4.47a5.67,5.67,0,0,0-2.21-.84c-1.37-.22-1.79.26-1.12,1.64a20,20,0,0,0,4.69,5.76c2.23,2.07,4,4.64,6.75,6.18.33.19.78.83.68,1-1.2,2.49,1,3.27,2.25,4.45,1.8,1.7,3.5,3.34,2.5,6.19a1.67,1.67,0,0,0,1,2c3.11.82,4.4,3.17,5.34,5.9,0,.16.08.42.19.47,4.15,2,4,6.53,5.83,9.89.85,1.57,2.09.18,3,.79a3.81,3.81,0,0,0,.65-2.2Z"/><path class="cls-3" d="M155.67,165.23l-2,.1c-.26-1.15,1.42-1.28.85-2.56-1,1.12-2.6-1.2-3.54.79.74,1.12,1.53,2.24-.22,3.2-.05,1.07.65,2.16-.08,3.22.08,1.19.29,2.27,1.86,2.19.49-.74.62-.21.77.22l-.13,0,0,.13,1.61-1.23v0l.22-.77,0,0c-.15-1.47.69-1.3,1.31-.61a14.16,14.16,0,0,1,1.57,2.64l2.62-1.16c-.79,1.81-2.43,3-1.6,4.6s.94,4.82,4.12,2.12a1.71,1.71,0,0,1,2.24.1,5.48,5.48,0,0,0,4.76,1.84c.65,0,.94.37,1.1.93.45,1.52,1.55,1.48,2.77,1.14.13-1.38-.82-2.33-1.44-3.37-2-3.43-4.14-6.82-6.22-10.22-2.55.65-4.4-.75-4.25-3.32a2.45,2.45,0,0,0-2.31-2.72c-1.59-.28-.78,1.07-1,1.8C158.18,166.24,157.18,166.66,155.67,165.23Z"/><path class="cls-3" d="M110.29,203c-1.61,0-3.07-1-4.71-.71.52,1.22,1.77,1.44,2.77,1.95,4.86,2.46,9.5,5.28,14.2,8,4.28,2.5,8.76,4.63,12.61,7.82,1.11.92,1.67-.42,3.07-.75-1.55,2.06-.49,2.71.79,3.73,5,4,9.95,8.17,15.48,11.47a37.77,37.77,0,0,1,12.19,12.16,39.71,39.71,0,0,0,3.95,5.06c.54.58,1,1.35,2,.72-2.62-2.27-2.94-6.17-5.89-8.24a1.85,1.85,0,0,1-.55-2c.68-2.27-.59-3-2.49-3.37-.86-.17-2.14.26-2-1.39a3,3,0,0,0-.32-.39l-.71-.38a8.05,8.05,0,0,0-2.52-3c-3.55-2-6.5-5.15-10.7-6l0,0c-1.16-.65-1.52-1.88-2.12-2.94-.46-1.48-1-2.4-3-2.27-2.74.18-4.44-2.81-4-6.29-.29-.66-.59-1.32-.89-2h0l-1.41.79h0c0,.76-.25,1.75-1,1.49-1.6-.56-3.76-.61-4.62-2-1.07-1.75-2.5-2.21-4.18-2.62h0l-.76-.21h0a2.07,2.07,0,0,1-2-1.36h0l-.76-.21h0l-.76-.21h0c-2.09-.26-3.12-2-4.13-3.44a6.64,6.64,0,0,0-4.36-2.89h0l-.76-.22h0a1,1,0,0,1-1.22.05h0l-.77-.22h.06Z"/><path class="cls-3" d="M86.15,190.83c1.31-1,3.36-1.44,2.07-4.06-.45-.9-3.08-.71-1.46-2.63-.34,0-.86-.13-1,0-2.35,3.1-4.78.73-7.13.07a5.92,5.92,0,0,1-2-1.37c-2.62-2.26-5.19-4.53-8.63-5.59a3.85,3.85,0,0,1-2-2c-1.28-3.12-4.69-4.2-6.37-6.9l-2-3.57a1.94,1.94,0,0,1-1.41-2.3l-.53-.94h0c-3.22-2.06-5.43-5.07-7.62-8.09h0l-.76-.2-.8.49a138.8,138.8,0,0,0,16.35,22,32.16,32.16,0,0,0,9.44,6.94C77.1,185.16,81.27,188.6,86.15,190.83Z"/><path class="cls-3" d="M191.34,258.63c-.77,1.55-.3,2.72,1.35,3,4.12.67,6.68,3.08,8.41,6.72a23.73,23.73,0,0,0,6.61,8c4.26,3.52,8.32,7.26,12.23,11.16.55.55,1.16,1.09,1.83.56.94-.76.06-1.47-.39-2a68.64,68.64,0,0,0-10.75-10.26,30.64,30.64,0,0,1-10.1-13.53,19.74,19.74,0,0,0-2.49-3.78C195.73,260.62,193.59,260.68,191.34,258.63Z"/><path class="cls-3" d="M167.74,199.1c-1.11-1.91-1.51-4.39-4.36-4.81-.83-.12-.69-1.35-1.17-2l-1.09-.78a7.66,7.66,0,0,0-.72.79c-.91,1.3-2.32,2.64-1.32,4.31s2.58,2,4.47,1.48c1.16-.29,2.22,0,1.82,1.68a2.31,2.31,0,0,0,.44,2c3.73,4.74,5.84,10.44,9.12,15.44,1.75-1.73.32-3.36-.32-4.86-1-2.39-2.55-4.32-1.69-7.44.73-2.68-2.14-3.69-4.35-4.52A1,1,0,0,1,167.74,199.1Z"/><path d="M106.84,185.8c.1.24.37.57.29.72-1.77,3.24.23,6.72-.65,10a3,3,0,0,0,1.27,3.05,2.38,2.38,0,0,0,2.81-.93,4.23,4.23,0,0,0,.62-3.05,1.92,1.92,0,0,1-.68-2.33c1.33-3.3,2.48-3.81,6-2.41l.72-1c.32-.81,1-1.51.71-2.49-.74-2.37-1.46-2.63-3.79-1.38l-.71.39C111.06,187.72,108.77,188.75,106.84,185.8Z"/><path class="cls-3" d="M127.07,202.17c-1.47-2.06,0-5.11,2.89-6-.76-1-1.59-1.91-2.27-3a1.61,1.61,0,0,0-2.23-.79c-.57,1.34-.52,2.88-1.77,4-.66.61-.88.85-1.65.3s-1.74-1.81-2.52-.11c-.63,1.39-1.55,3.14.5,4.1,1.18.55,1.71.65,1,2.16s.43,2.56,2.29,2.1c1.44-.36,2.24-1.73,3.61-2.16Z"/><path class="cls-3" d="M157.19,182.2a8.53,8.53,0,0,1-1.47-6.58,3.75,3.75,0,0,0-1.05-3.39l-.87.79c-2.08,1.34-1.81,4.13-3.53,5.69,3.25,3.34,5.16,7.59,7.8,11.35.78,1.11,1.74.51,2.62.66.68-1.1.32-2.19.06-3.33C160.24,185.17,158.27,184,157.19,182.2Z"/><path class="cls-3" d="M223.14,262.29c0-1.32,1.78-2.87.35-3.84-2-1.39-3.77-3.83-6.82-3h0a3.27,3.27,0,0,1-.56,2c-1.89,4.11-.9,5.94,3.7,6.78.08,0,.18-.08.25-.05,2.33.75,2.33.75,3-1.74Z"/><path class="cls-3" d="M184.84,197.46l-1.35.81a3.58,3.58,0,0,0,.09.45,53.13,53.13,0,0,0,9.19,14.66A55.12,55.12,0,0,1,200,223.43c1.39-.87,1.3-1.67.31-3A234.18,234.18,0,0,1,184.84,197.46Z"/><path class="cls-3" d="M258.41,320c1.95.36,2.92-.13,2.32-2.37a35.26,35.26,0,0,1-.65-4.24c-.54-3.78-.52-3.6-4.38-3.26-2.33.21-2.25,1.12-1.79,2.9.56,2.14,1.91,3.95,2.28,6.17.2,1.18,1.13,1.53,2.24.81.11-.13-.08-.53.35-.37Z"/><path class="cls-3" d="M155.67,165.23c1.51,1.43,2.51,1,3-.9.17-.73-.64-2.08,1-1.8a2.45,2.45,0,0,1,2.31,2.72c-.15,2.57,1.7,4,4.25,3.32-2.39-4.41-4.08-9.18-6.89-13.38-1.53.67-2.51,1.58-1.8,3.45.43,1.1-.28,1.81-1,2.45C155.48,162.35,157,164.05,155.67,165.23Z"/><path class="cls-3" d="M226.15,269.55a3,3,0,0,0,4.79.78c1.66-1.61,3.34-3.19,5-4.83.57-.57,1.81-1.23.84-2.09s-2.3-2.8-3.79-1.6a80.22,80.22,0,0,0-6.77,6.78A.69.69,0,0,0,226.15,269.55Z"/><path class="cls-3" d="M131.5,122.08c-.89.77-1.2,1.42,0,2.28a8.28,8.28,0,0,1,3.35,4.57c.91,3,6,5.48,8.39,4.42A49.76,49.76,0,0,0,131.5,122.08Z"/><path class="cls-3" d="M150.27,178.71c1.72-1.56,1.45-4.35,3.53-5.69l-.69-.54,0-.13.13,0c-.35.29-.55,0-.77-.22-1.57.08-1.78-1-1.86-2.19a2,2,0,0,0-1.33.68c-1,1.23-1.91,1.57-2.44-.41,0-.17-.61-.2-.93-.29-.16.39.25,1.11-.64,1.06l0-.06c.42,2.15.87,4.13,3.44,4.95C149.63,176.19,148.83,178.23,150.27,178.71Z"/><path class="cls-3" d="M145.94,170c.32.09.89.12.93.29.53,2,1.46,1.64,2.44.41a2,2,0,0,1,1.33-.68c.73-1.06,0-2.15.09-3.22-.3-1.85-.41-3.8-2.75-4.36a5,5,0,0,1-.35,2.77,2.84,2.84,0,0,0-3-1.09c-.41,1.4-1.1,2.79.86,3.75C146.17,168.18,145.18,169.36,145.94,170Z"/><path class="cls-3" d="M156.4,161.09c.77-.64,1.48-1.35,1-2.45-.71-1.87.27-2.78,1.8-3.45-1.27-3.1-3.62-5.43-5.64-8-1.53,1.65-.89,3.75-.2,5.16A47.08,47.08,0,0,1,156.4,161.09Z"/><path class="cls-3" d="M130,196.2c.46,2.39,1.51,3.77,4.34,3.36,2.24-.32,3.12,1.36,2.05,3.47-.36.71-.82,1.37-1.14,2.09-.22.5-.26,1.11.42,1.31.5.14,1.26.16,1.27-.52.05-1.87,1.92-2.16,2.69-3.37-.69-1.24-1.41-2.46-2.07-3.71-.91-1.77-1.7-3.37-4.11-1.54C132.11,198.28,131.48,195.49,130,196.2Z"/><path class="cls-3" d="M255.77,304.82a21.33,21.33,0,0,1,2.09-1.16c2-.86,1.36-2.06.56-3.39-1-1.67-1.79-.66-2.72.08-1.09.89-2.25,1.71-3.41,2.52a2.19,2.19,0,0,0-.83,3.2c.92,1.42,1.81-.06,2.69-.35a10,10,0,0,0,1.63-.89Z"/><path class="cls-3" d="M211.3,250.27c-1.59,1.69-3.17,3.39-4.79,5-.66.67-.49,1.17.06,1.82s1.06.56,1.75,0c2-1.52,3.54-3.55,5.81-4.72.64-.33.88-.86.25-1.5C213.51,250.08,212.62,249.34,211.3,250.27Z"/><path class="cls-3" d="M45.57,145.64l1.86-1-.06-1.21a3.82,3.82,0,0,1-2.51-2.24c-.88-.12-1.47-.41-1.38-1.52a7.2,7.2,0,0,0-.91-3.58c-.3-.66-.53-1.79-1.49-1.53s-.7,1.23-.71,2.05c0,2.46,1.21,4.39,2.34,6.39.35.62.75,1.21,1.13,1.81l0,0a1.3,1.3,0,0,1,1,.7h0Z"/><path class="cls-3" d="M95.9,193.83c-2.28.27-4-1-5.32-2.46s-2.65-1.39-4.09-.26c2.73,1.9,5.22,4.2,8.43,5.35,1.22.2,2.47-1,3.73.27.4.42,1-.45,1.17-1-.67-1.89-2.73-1-3.88-1.89Z"/><path class="cls-3" d="M74.61,159c.52,2.68,3.35,4.42,3,7.48a8.94,8.94,0,0,1-.5,2.6c-.28.65-.55,1.51.27,1.9s1.54-.23,2-.91.53-1.72,1.34-2.27c-1.18-2.54-2.34-5.1-3.57-7.62C76.65,159.18,76.14,157.92,74.61,159Z"/><path d="M207.06,248.18a32,32,0,0,0-3.52,5.94,1,1,0,0,0,.38.87c.64.42,1.18,0,1.64-.41,1.28-1.25,2.52-2.51,3.83-3.71.59-.55,1.13-1,.23-1.66C208.87,248.68,208.25,247.73,207.06,248.18Z"/><path d="M211.36,258.87a1.71,1.71,0,0,0,1.37,1.95c1,.13,1.09-.95,1.43-1.6.7-1.37,1-3,2.52-3.83h0c.08-.52.12-1,.24-1.55a1,1,0,0,0-.63-1.27c-.64-.28-1,.14-1.3.58-.69,1-1.36,2-2,3C211.69,256.67,211.83,258,211.36,258.87Z"/><path d="M223.14,262.29l0,.1c.93,1.25.48,2.53.12,3.83-.16.58-.51,1.26.15,1.72.87.61,1.18-.47,1.79-.7v0l.21-.75v0l.21-.75v0l.21-.75h0l.22-.74h0a2.38,2.38,0,0,1,1.29-3.19h0a4.89,4.89,0,0,1-.09-1c.07-.54.74-1.2-.18-1.52a1.41,1.41,0,0,0-1.72.85C224.73,260.54,224.43,261.79,223.14,262.29Z"/><path class="cls-3" d="M178.62,234.81a30.24,30.24,0,0,1,8.28-4.68c1.13-.36,2.28-1.23,2.24,1a1,1,0,0,0,1,1.09c1.23.09,1.12-1.22,1.73-1.78l-1.7-1.41h0a1.57,1.57,0,0,1-1.46-.41v0C184.4,229.15,180.86,230.93,178.62,234.81Z"/><path class="cls-3" d="M157.19,182.2c1.08,1.8,3.05,3,3.56,5.19.26,1.14.62,2.23-.06,3.33l.43.82,1.09.78a11,11,0,0,0,.08-4.91C161.41,183,161.51,183,157.19,182.2Z"/><path class="cls-3" d="M96.36,176.94c-1.44,2.56-4.36,3.92-5.49,6.73h0c3.52-.72,6.07-3,8.49-5.42C98.28,178,96.85,178.55,96.36,176.94Z"/><path class="cls-3" d="M254.54,306.85c-.63.44-1.74.71-1.5,1.64.31,1.21,1.5.61,2.3.56a24.47,24.47,0,0,0,3.7-.55,1.23,1.23,0,0,0,.94-1.43c0-.86-.6-1-1.28-1C257.28,306.17,255.81,305.93,254.54,306.85Z"/><path class="cls-3" d="M197.38,227.43c-2,0-4,0-6.07-.11-.78,0-1.42-.2-1.68.74l.52.95h0c1.32-.74,2.2.36,3.19.82C196.23,231.16,197.12,230.66,197.38,227.43Z"/><path class="cls-3" d="M150.61,210a4,4,0,0,1,1.45,3c0,1.57,3.8,4.52,5.14,4.3-.66-2.78-3.78-4-4.21-7.08C152.79,208.75,151.47,209.57,150.61,210Z"/><path d="M191.34,258.63c2.25,2.05,4.39,2,6.7-.19-.93-2.1-2-3.07-4.07-1C193.36,258.11,192.23,258.26,191.34,258.63Z"/><path d="M201.06,252.69c.67.76,1.3.9,1.83.11.93-1.4,1.81-2.83,2.69-4.27.35-.58.49-1.2-.27-1.57s-1.41-.52-1.86.31c-.79,1.48-1.52,3-2.25,4.51A3,3,0,0,0,201.06,252.69Z"/><path class="cls-3" d="M225.61,267a11.5,11.5,0,0,0,3.58-3.07c.64-.69,2.11-1.33,1.4-2.4a2.26,2.26,0,0,0-3.31-.37h0a4.47,4.47,0,0,1-1.29,3.19h0l-.22.74h0l-.21.75v0l-.21.75v0l.26.48Z"/><path class="cls-3" d="M252.34,301.36l-3.92-6.85c-.43-.76-.76-1.62-1.73-1.87.47,3.31,2.64,5.95,3.64,9.08C250.64,302.7,251.81,302.4,252.34,301.36Z"/><path class="cls-3" d="M140.59,156.28c1.29,2.18.82,5.26,3.46,6.74l1.92-1.08c-.13-.28-.27-.56-.4-.85l-.31-.59-.5-.81c-2.32.23-1.48-2.13-2.45-3A1.48,1.48,0,0,0,140.59,156.28Z"/><path class="cls-3" d="M244.31,275a11.84,11.84,0,0,0,6.66,7.84l-5-7.1C245.58,275.19,245.19,274.54,244.31,275Z"/><path class="cls-3" d="M99.82,195.69c-.21.59-.77,1.46-1.17,1-1.26-1.31-2.51-.07-3.73-.27,2.08,1.87,4.81,2.63,7.06,4.2l0,0C101.14,199,100,197.55,99.82,195.69Z"/><path class="cls-3" d="M49.77,154.44c-1-2.52-.53-5.76-3.47-7.38-1.24,2.66.85,4.38,1.8,6.42h0Z"/><path class="cls-3" d="M43.84,144.79c-1.48.14-1.69-1.35-2.78-2.24a25.1,25.1,0,0,0,4.52,9.12c-.68-2-.44-4.16-.77-6.21h0a1.28,1.28,0,0,1-1-.7Z"/><path class="cls-3" d="M101.13,180.89c-1.32,2.18-4.49,2.38-5.32,5.15,2.12-1.79,5.57-1.47,6.81-4.58l0,0,.1-.69C102.13,180.34,101.63,180.68,101.13,180.89Z"/><path class="cls-3" d="M223.93,290.3c-.49-.89-.93-1.71-1.88-1.35-1.24.46-.37,1.26-.14,1.93a1.23,1.23,0,0,0,.24.47c.73.71-.17,3.18,1.81,2.26C225.41,292.94,224.15,291.31,223.93,290.3Z"/><path class="cls-3" d="M246.24,291.88c.24-1.47-.39-2.86-.46-4.32-.06-1.2-1.89-1.36-3.22-1.11C244,288.1,244.48,290.43,246.24,291.88Z"/><path class="cls-3" d="M196.05,253.86l-.08-.23-1.1-.82h0l-1.42.8v0c-.44,2.16-2.71,2.35-4.29,3.9C192.14,256.93,194.42,256,196.05,253.86Z"/><path d="M146,161.94,144.05,163c.18.36.37.71.56,1.06a2.84,2.84,0,0,1,3,1.09,5,5,0,0,0,.35-2.76C147.48,161.51,146.76,161.56,146,161.94Z"/><path class="cls-3" d="M140.59,156.28a1.48,1.48,0,0,1,1.72.41,4.21,4.21,0,0,0-.15-2.48,3.27,3.27,0,0,1-1.5-1.55l-1.82,1.08C139.41,154.6,140.33,155.21,140.59,156.28Z"/><path class="cls-3" d="M211.36,258.87c.47-.92.33-2.2,1.58-2.66-1.95-1.25-2.58.74-3.11,1.65S210.5,259,211.36,258.87Z"/><path class="cls-3" d="M177.17,239.93c2-1.05,1.48-2.59.82-4.16C177.45,237.1,176.58,238.37,177.17,239.93Z"/><path class="cls-3" d="M40.07,134.43c1.22-2.21.29-3.28-.57-4.85C39.2,131.32,39.6,132.5,40.07,134.43Z"/><path d="M44.86,141.17a3.82,3.82,0,0,0,2.51,2.24C47.55,141.52,46.55,141,44.86,141.17Z"/><path d="M180.81,224.38c-.7.56-.57,1.18-.16,1.84s.79.51,1.21,0v0l-1.06-1.91Z"/><path class="cls-3" d="M102,200.66l1.64.91c.26-.58-.22-.95-.4-1.4h0l-1.25.47Z"/><path class="cls-3" d="M46.54,153.77l.8-.49c-.25-.32-.48-.81-1-.41C46.27,153,46.48,153.46,46.54,153.77Z"/><path class="cls-3" d="M114.31,110.16l1.18,1.06C116,109.91,114.84,110.37,114.31,110.16Z"/><path class="cls-3" d="M174.29,183.05c-.21.84.19,1,.88.73Z"/><path class="cls-3" d="M144.37,206.61l.72.23Z"/><path class="cls-3" d="M96.64,176.15l-.3.78Z"/><path class="cls-3" d="M176.85,241.29c0-.21.09-.42.13-.63C176.94,240.87,176.89,241.08,176.85,241.29Z"/><path class="cls-3" d="M177,240.67c.07-.25.13-.49.2-.73A.49.49,0,0,0,177,240.67Z"/><path class="cls-3" d="M178.2,235.67c.14-.28.29-.57.43-.86C178.49,235.1,178.34,235.39,178.2,235.67Z"/><polygon points="178.11 228.35 178.26 228.41 178.1 228.37 178.11 228.35"/><path class="cls-1" d="M178.69,226.3c.17.12.38.4.52.06.06-.13-.2-.4-.31-.6Z"/><path class="cls-3" d="M225.17,267.24a1.83,1.83,0,0,0,.4-.05s0-.13,0-.21h0l-.47.27Z"/><path d="M102.69,180.74l-.1.69C102.62,181.2,102.66,181,102.69,180.74Z"/><path class="cls-4" d="M180.12,219.85c.35-.31.66-1,.23-1.06-1.79-.34-2.48-1.78-3.56-3.6a6,6,0,0,0,3.31,4.65Z"/><path class="cls-4" d="M157.79,172.59a14.16,14.16,0,0,0-1.57-2.64c-.62-.69-1.46-.86-1.31.61,1.43-.46,1.71.46,1.73,1.53S157.2,172.89,157.79,172.59Z"/><path class="cls-4" d="M183.58,198.72a3.58,3.58,0,0,1-.09-.45c-1,0-2,.41-2.92-1.09C181.22,199.89,181.29,199.91,183.58,198.72Z"/><path class="cls-3" d="M167.74,199.1a1,1,0,0,0,.83,1.35c.51-.41.77-.91.35-1.51S168.1,198.8,167.74,199.1Z"/><path class="cls-4" d="M153.11,172.48l.69.54.87-.79c0-.33,0-.65.05-1Z"/><path class="cls-4" d="M180.79,224.37l1.06,1.91A1.41,1.41,0,0,0,180.79,224.37Z"/><path class="cls-4" d="M190.15,229l-.52-.95-.94.54A1.57,1.57,0,0,0,190.15,229Z"/><path class="cls-4" d="M180.1,219.84l-.67,1h0a1.2,1.2,0,0,0,.68-1Z"/><path class="cls-4" d="M179.43,220.84l-.09.17.1-.17Z"/><path class="cls-4" d="M154.93,170.52l-.22.77C154.79,171,154.86,170.78,154.93,170.52Z"/><path class="cls-3" d="M90.66,184.4a1.73,1.73,0,0,0-1.08,1.7c0,.61-.19,1.35.36,1.76.73.54,1-.31,1.52-.64,2.12-1.51,4.65-2.61,5.79-5.84a17.39,17.39,0,0,0-4.32,2.7c-.67.67-1.35,1.26-2.26.33Z"/><path class="cls-4" d="M49.77,154.44l-1.71-1c2.19,3,4.4,6,7.62,8.09A46.85,46.85,0,0,0,49.77,154.44Z"/><path class="cls-4" d="M78.12,174.25a1.42,1.42,0,0,0-2-.66,1.26,1.26,0,0,0-.78,1.72,1.52,1.52,0,0,0,2,.89A1.43,1.43,0,0,0,78.12,174.25Z"/><path class="cls-4" d="M57.6,164.79l2,3.57c.07-1.49-1.38-2.54-1.18-4.07h0Z"/><path class="cls-4" d="M58.47,164.29c.66-1.19.31-1.83-1.06-1.9v0l1,1.86Z"/><path class="cls-4" d="M55.66,161.55l.53.94,1.21-.06v0C57,161.7,56.55,161.2,55.66,161.55Z"/><path class="cls-3" d="M96.12,193c-.07.27-.15.53-.22.79l0,0,.19-.75Z"/><path class="cls-3" d="M90.67,184.41l.21-.73h0l-.21.73Z"/><polygon class="cls-3" points="91.67 190.61 91.63 190.79 91.69 190.61 91.67 190.61"/><path class="cls-3" d="M161.76,237.47c-.19,1.65,1.09,1.22,2,1.39a2.58,2.58,0,0,0,.06-3.17,4,4,0,0,1-.74-2.76c.29-3.46-2.11-5-5.43-3.53-.8.37-1.55.85-2.32,1.28,2.08,1.87,5.63,2.28,5.9,5.94C161.74,236.66,161.88,237,161.76,237.47Z"/><path class="cls-4" d="M161.18,236.62c-.27-3.66-3.82-4.07-5.9-5.94-.08,0-.21-.05-.24-.12-1.56-3.41-4.47-3.36-7.53-2.92,4.2.87,7.15,4,10.7,6a8.05,8.05,0,0,1,2.52,3l.46-.1Z"/><path class="cls-4" d="M145.43,224.72c.6,1.06,1,2.29,2.12,2.94C146.76,226.74,146.63,225.35,145.43,224.72Z"/><path class="cls-4" d="M137.5,214.18c.3.66.6,1.32.89,2,.44-.63.13-1.23-.1-1.83Z"/><path class="cls-4" d="M140.66,152.66a3.27,3.27,0,0,0,1.5,1.55c2.77.92,2.54,3.27,2.6,5.48.16.27.33.54.5.81l.31.59c.13.29.27.57.4.85.79-.38,1.51-.43,2,.47,2.34.55,2.45,2.5,2.75,4.35,1.74-1,1-2.08.21-3.2-2.33-2.68-5.83-4.39-6.54-8.38-.3-1.71-2.2-2.16-3.31-3.25C140.85,151.69,140.69,152.33,140.66,152.66Z"/><path class="cls-4" d="M133.9,142.48l3.63,4.5c.74,0,1.53.52,2.42-.36a8.27,8.27,0,0,1-4.09-3.58C135.4,142.28,134.8,141.8,133.9,142.48Z"/><path class="cls-4" d="M117.45,115.83a32,32,0,0,0,5.37,6.24,26,26,0,0,0-3.64-5.43C118.71,116.06,118.28,115.57,117.45,115.83Z"/><path class="cls-4" d="M128.51,131.17c1.22,1,1.87,2.57,3.55,3C131.1,132.89,130.85,130.79,128.51,131.17Z"/><path class="cls-4" d="M125.05,123.89l1.78,2.07C127.64,124.07,127,123.46,125.05,123.89Z"/><path class="cls-4" d="M141.27,146.31a2.16,2.16,0,0,0,2.51-.63C142.59,145.16,142.13,145.92,141.27,146.31Z"/><path class="cls-4" d="M122.8,122.06c.57.83.67,2.26,2.27,1.83A3.4,3.4,0,0,0,122.8,122.06Z"/><path class="cls-4" d="M126.69,127.86a3,3,0,0,0,1.86,3.32Z"/><path class="cls-4" d="M132,134.14l.76.3.21-.65Z"/><path class="cls-4" d="M116,115.46l.79.17C116.54,115.34,116.35,114.91,116,115.46Z"/><path class="cls-4" d="M126.63,126.66a1,1,0,0,0,.06,1.24Z"/><path class="cls-4" d="M116.72,115.61l.77.22Z"/><path class="cls-4" d="M126.84,125.93l-.21.76Z"/><path class="cls-3" d="M116.45,190.9c-3.47-1.4-4.62-.89-6,2.41a1.92,1.92,0,0,0,.68,2.33c.72-.29,1.33-.87,2.19-.77C116.93,195.25,117.34,194.71,116.45,190.9Z"/><path d="M96.13,193.05l-.19.75c1.15.93,3.21,0,3.88,1.89.22,1.86,1.32,3.34,2.12,4.94l1.25-.47a23.46,23.46,0,0,0-3-6.12C98.84,192.15,97.83,192,96.13,193.05Z"/><path class="cls-4" d="M126.34,211.82c1.68.41,3.11.87,4.18,2.62.86,1.4,3,1.45,4.62,2,.74.26,1-.73,1-1.49-2.21.41-4.23-.07-5.38-2.06S128.26,210.31,126.34,211.82Z"/><path class="cls-4" d="M113.68,203.53a6.64,6.64,0,0,1,4.36,2.89c1,1.42,2,3.18,4.13,3.44-1.58-1.87-3.22-3.69-4.71-5.62C116.35,202.81,115.2,202.39,113.68,203.53Z"/><path class="cls-4" d="M127.07,202.17l-.15.72c1.66,1.55,1.2-1.27,2.2-1.07.06-.13.12-.26.17-.39C128.28,200.86,127.62,201.34,127.07,202.17Z"/><path class="cls-4" d="M123.61,210.26a2.07,2.07,0,0,0,2,1.36A2.06,2.06,0,0,0,123.61,210.26Z"/><path class="cls-4" d="M129.12,201.82l1,1.23c.34-1.06-.28-1.32-.86-1.62C129.24,201.56,129.18,201.69,129.12,201.82Z"/><path class="cls-4" d="M136.12,215l1.41-.79C136.71,213.82,136.24,214.08,136.12,215Z"/><path class="cls-4" d="M111.75,203.37a1,1,0,0,0,1.22-.05A1.05,1.05,0,0,0,111.75,203.37Z"/><path class="cls-4" d="M111,203.16l.77.22Z"/><path class="cls-4" d="M110.29,203l.77.21Z"/><path class="cls-4" d="M112.94,203.31l.76.22Z"/><path class="cls-4" d="M122.15,209.85l.76.21Z"/><path class="cls-4" d="M122.88,210.06l.76.21Z"/><path class="cls-4" d="M125.6,211.61l.76.21Z"/><path class="cls-4" d="M185.73,235.32c-.68-.77-1.5-1.58-2.65-.75a1.82,1.82,0,0,0-.41,2.63c.59.85,1.42,1.86,2.63,1.05C186.31,237.57,186.41,236.49,185.73,235.32Z"/><path class="cls-4" d="M197.67,242.63c-1.22.72-1.14,1.75-.7,2.8s1.16,1.66,2.3,1.12,1-1.74.64-2.77A1.58,1.58,0,0,0,197.67,242.63Z"/><path class="cls-5" d="M186.15,249.18a4.26,4.26,0,0,1,.63-2.79c-5.27.21-5.27.21-4.48,4.85h0l1.77-.78.1-.27c-.45-.74-1.81-1.26-.83-2.37.78-.88,1.58-.37,2.16.43a8.11,8.11,0,0,1,.54.89Z"/><path class="cls-5" d="M184.09,250.46c1.43.76,1.79-.19,2.06-1.28l-.09,0-1.87,1.05Z"/><path class="cls-4" d="M181.45,251.85c-.24.38-.91.76-.49,1.15s.63-.31.71-.74C181.59,252.13,181.52,252,181.45,251.85Z"/><path class="cls-4" d="M193.49,253.62l1.42-.8C194.12,252.51,193.64,252.77,193.49,253.62Z"/><path class="cls-4" d="M194.87,252.81l1.1.82A1.33,1.33,0,0,0,194.87,252.81Z"/><path class="cls-5" d="M181.45,251.85c.07.14.14.28.22.41l.65-1h0Z"/><path class="cls-4" d="M152.5,172.17c.22.22.42.51.77.22C153.12,172,153,171.43,152.5,172.17Z"/><path class="cls-4" d="M161.76,237.47c.12-.5,0-.81-.58-.85v0l.25.48A3,3,0,0,1,161.76,237.47Z"/><path class="cls-3" d="M161.44,237.08l-.25-.48-.46.1Z"/><path d="M57.4,162.43l-1.21.06a1.94,1.94,0,0,0,1.41,2.3l.84-.5Z"/><path class="cls-4" d="M258.41,320l.37-.36c-.43-.16-.24.24-.35.37Z"/><path class="cls-4" d="M43.81,144.77a1.28,1.28,0,0,0,1,.7A1.3,1.3,0,0,0,43.81,144.77Z"/><path class="cls-4" d="M226,264.33a4.47,4.47,0,0,0,1.29-3.19A2.38,2.38,0,0,0,226,264.33Z"/><path class="cls-4" d="M225.16,267.26l.47-.27c-.09-.16-.18-.32-.26-.48Z"/><path class="cls-4" d="M225.36,266.53l.21-.75Z"/><path class="cls-4" d="M225.57,265.8l.21-.75Z"/><path class="cls-4" d="M225.77,265.06l.22-.74C225.92,264.57,225.85,264.82,225.77,265.06Z"/><path d="M144.76,159.69c-.06-2.21.17-4.56-2.6-5.48a4.21,4.21,0,0,1,.15,2.48C143.28,157.56,142.44,159.92,144.76,159.69Z"/><path d="M145.57,161.09l-.31-.59Z"/><path class="cls-4" d="M184.19,250.19l1.87-1.05a8.11,8.11,0,0,0-.54-.89c-.58-.8-1.38-1.31-2.16-.43C182.38,248.93,183.74,249.45,184.19,250.19Z"/></g></svg>
