<svg xmlns="http://www.w3.org/2000/svg" xmlns:xlink="http://www.w3.org/1999/xlink" viewBox="0 0 300.47 425.2"><defs><style>.cls-1{fill:url(#Or_radial);}.cls-2{fill:#e1e3e7;}.cls-3{fill:#bbbcbc;}.cls-4{fill:#818282;}.cls-5{fill:#4c4c4b;}.cls-6{fill:#181818;}.cls-7{fill:#1b1b1b;}.cls-8{fill:#121212;}.cls-9{fill:#202020;}.cls-10{fill:#212121;}.cls-11{fill:#1c1c1c;}.cls-12{fill:#1a1a1a;}.cls-13{fill:#161616;}.cls-14{fill:#0f0f0f;}.cls-15{fill:#141414;}.cls-16{fill:#101010;}.cls-17{fill:#0e0e0e;}.cls-18{fill:#040404;}.cls-19{fill:#151515;}.cls-20{fill:#1f1f1f;}.cls-21{fill:#1e1e1e;}.cls-22{fill:#171717;}.cls-23{fill:#1d1d1d;}.cls-24{fill:#111;}</style><radialGradient id="Or_radial" cx="150.24" cy="212.47" r="91.01" gradientUnits="userSpaceOnUse"><stop offset="0" stop-color="#fffad2"/><stop offset="0.11" stop-color="#fcf2c1"/><stop offset="0.34" stop-color="#f3df94"/><stop offset="0.37" stop-color="#f2dc8e"/><stop offset="0.69" stop-color="#f0bf00"/><stop offset="1" stop-color="#c9961a"/></radialGradient></defs><title>Feuille</title><g id="Feuille"><path class="cls-1" d="M187.52,209.61c.16,2-1.59,2.94-2.34,4.44-1,1.63-2.42,3-3,4.91a7.85,7.85,0,0,0-1.56,2.46c-1.75,2.21-3.41,4.49-6,5.82a2.54,2.54,0,0,0-1.14,2.49,2.35,2.35,0,0,0,1.29,2.7,1.76,1.76,0,0,1,1,1.08c.38,1,1.44,1.4,1.81,2.36.07.93.88,1.58,1,2.51,1.41,3.09,1.51,3.11,3.82.83.77-.77,1.51-1.57,2.35-2.27.85-.92,2.24-1.36,2.5-2.81a9.34,9.34,0,0,1,1.38-1.36c2.06-1.27,3.48-3.17,5-5,2.27-1.87,4.41-3.88,6.68-5.75a17.46,17.46,0,0,1,1.53-1.15,1.72,1.72,0,0,1,2-.29,1.87,1.87,0,0,1,.87,2,17.3,17.3,0,0,0-.3,3.68c-.18-2.25,1.15-4.34,1.72-6.61a13.66,13.66,0,0,0,1.81-3.23,2.47,2.47,0,0,1,1.86-1.71,25.18,25.18,0,0,0,6.43.31,15.83,15.83,0,0,0,6.59-.75,10.6,10.6,0,0,0,3.63-1.22c1-.49,1.7-.26,1.47.81-.84,3.92,1.52,5.16,4.63,5.94.64.17,1.61.2,1.7,1,.11,1-1,1-1.61,1.38a26.41,26.41,0,0,0-3.1,1.93c-1.29,1.11-3,2-2.29,4.37.25.83-.67,2-1,3-1.16,3.39-.18,4.91,3.33,4.71,3.28-.18,6.75.09,9.36-2.67.68-.71,1.09-.21,1.23.62a9.55,9.55,0,0,1-4.51,9.72c-1.75,1-3.7,1.82-5,3.49a4.79,4.79,0,0,0-.52,5.89c.66,1.17,1.44,2,2.92,1.18.43-.24.9-.28,1.18.22s-.17.81-.46,1.14a22,22,0,0,0-2,2.35c-.68,1.07-1.42,2.22-.43,3.53a6.93,6.93,0,0,0,4.15,2c.31.7-.12,1.21-.45,1.76-2.94,4.87-3.72,9.88-1,15.13.2.38.53.82,0,1.18s-1,0-1.42-.25c-2.52-1.51-5-3-7.57-4.52a12.28,12.28,0,0,0-1.39-.62c-3.52.32-7.05.3-10.57.55-.42,0-.83-.1-1.25-.12-1.12-.15-2,.64-3.09.72a31.63,31.63,0,0,0-10,4.47c-1.12.74-1.85,1.91-2.94,2.68a55.44,55.44,0,0,1-13,10c-.85.65-2,.81-2.77,1.51a10.12,10.12,0,0,1-4.51,1.54c-2.2.25-4.32-.58-6.51-.46-1.24-.16-2.48-.4-3.71-.64.95.18,1.91.34,2.87.53.63.09,1.26.17,1.9.2,1.19.05,2.06.62,1.91,1.85s-1.29,1.43-2.35,1.44c-.42,0-.76-.47-1.25-.32-5.35,1-10.69,2-16.06,2.94-2.07.34-4.19.38-6.29.56l-.26.19c-1.25,0-2.43.49-3.68.59a111.89,111.89,0,0,1-13-3,3.57,3.57,0,0,1-2.28-1.61l-7.34-3c-6.81-3.07-12.45-7.52-15.94-14.22-1.71-3.31-2.78-6.91-4.85-10.09a32.5,32.5,0,0,0-9.4-9.47c-2-1.34-1.93-1.26-.63-3.13,1.63-2.35,3.93-4.1,5.58-6.43.21-.3.69-.48.45-.93s-.71-.31-1-.24c-2.18.44-4.38-.37-6.57.15-1.16.28-.94-.49-.79-1.22.57-2.95,1.44-5.87,1.2-8.93-.13-1.56-.31-3.12-.47-4.68-.34-3.17-.74-6.31-4.52-7.37l-1.93-2.38L77.6,222a4.32,4.32,0,0,0-.8-1.91l-3.18-9.25-1.48-4.67q-.61-2.6-1.24-5.21c-.16-.67-.46-1-1.21-.64-.39.2-.87.26-1.24.5-1.47.92-2.2.29-2.59-1.16a1.88,1.88,0,0,1-1-2.39c-2.24-6.71-4.12-13.49-4.47-20.62a49.17,49.17,0,0,1,1.69-14.08c.07-1.7,1.09-2,2.59-2,3,.06,2.94,0,3.23-2.9a111.76,111.76,0,0,1,6.64-28.42c1.43-3.78,3.89-6.51,8.47-7.13,13.19-1.81,26.34-2.79,39.45.29,6.5,1.52,12.91,3.4,19.43,4.83a51.18,51.18,0,0,0,25.17-.46c7.54-2.13,11.69-.78,15.63,7.12A148.3,148.3,0,0,1,191.35,155c.38,1.19.66,2.06,2.11,1.27,1-.52,1.5,0,2.07.75a32.37,32.37,0,0,1,6.71,16.71A36.31,36.31,0,0,1,200,187.09c-.19.52-.2,1.18-.91,1.32-.22.05-.36-.22-.85-1.52-.88,1-2,1.85-1.44,3.44a1.31,1.31,0,0,1,.09,1.94c.2,1.66-.52,2.34-2.18,2.07-1.25-.2-1.78.23-1.83,1.62"/><path class="cls-2" d="M186.46,146.64a20.15,20.15,0,0,1,1.9,4.24c2.69,9.91-3.57,16.76-9.78,21a39.74,39.74,0,0,1-13.07,5.53c-3,.76-6.26.54-9.39.66-5.52.21-11.06.25-16.58,0a220.7,220.7,0,0,1-29.69-2.76,11.1,11.1,0,0,1-9.18-9.59,6.71,6.71,0,0,0-.3-1.31c0-2.42-.08-4.83-.13-7.25a28.61,28.61,0,0,1-.24-6c.2-2.89,2.06-5.1,4.35-6.78,3.26-2.41,6.69-4.47,10.87-5,1-.13,2.09-.51,3.13-.7,0,0,.08.13.08.13l-.15,0a3.4,3.4,0,0,1-1.31,0,7.3,7.3,0,0,0-2.73.58,4.07,4.07,0,0,1-1.77-.09,1.67,1.67,0,0,0-2,.14,2.19,2.19,0,0,1-2.5-.15c-.93-.87-1.68,0-2.49.27a3.14,3.14,0,0,1-1.68.37c-1-.35-1.9-.94-2.9-.09a3,3,0,0,1-1.72.46c-1-.33-2-1.17-3.07-.18a1.22,1.22,0,0,1-1.69-.29c-.94,0-1.4-.27-1.56-1.35-.58-3.7-1.53-7.28-4.46-9.95-.3-1.12.53-1.52,1.3-1.81a49.89,49.89,0,0,1,21.86-3.6c5.89.44,11,3.06,16.2,5.31a61.11,61.11,0,0,0,20.58,4.62,72.19,72.19,0,0,0,14.77-.78,17.08,17.08,0,0,0,4.08-1.14,12.37,12.37,0,0,1,13.31,3.37c.7.84,1.38,1.68,2,2.56a21,21,0,0,1,1.57,3.28c.71,1.39.47,2.23-1.14,2.51a.94.94,0,0,1-1.24.33l-.17-.07C183.53,143.79,185.38,144.68,186.46,146.64Z"/><path class="cls-2" d="M205.62,230.41c.11-4.75,1.82-9,4-13.13a1.31,1.31,0,0,1,1.47-.9c4.88.48,9.74.52,14.43-1.31.61-.23,1-.13.95.64a7.35,7.35,0,0,1,0,1.15c-.37,1.85.54,2.71,2.22,3.11a27.31,27.31,0,0,1,2.71,1c-1.4,1-2.73,1.87-3.9,2.9s-2.44,2.39-1.95,4.47c.28,1.2-.77,2.24-1.05,3.42-.95,4,.56,6.08,4.68,6.1A23.59,23.59,0,0,0,238.5,236c.23,2.62-1.06,4.4-2.81,6a29.35,29.35,0,0,1-3.93,2.41c-4.4,2.82-5.13,6-2.5,10.8.48,1.25-.1,2.16-.85,3.13-3.85,5-9,5.94-14.81,4.89-1.16-.21-1.89.07-2.16,1.2-.9,3.9-3.5,6.43-6.77,8.4-3.1,1.86-6.61,2.22-10.09,2.68a8,8,0,0,0-1.19.21,1.56,1.56,0,0,1-1.39-.2,2.27,2.27,0,0,0-.92-.6.7.7,0,0,1,.53.7c-.24,1.1-1.26,1.4-2.06,1.86A108.86,108.86,0,0,1,159,289.33c-2.56.58-5.11,1.28-7.78.81-.6-.07-.74.36-.83.83-1.68,3-4.5,4.46-7.58,5.51-3.85,1.33-7.84,1.16-11.8.76a46.65,46.65,0,0,1-17.67-5.71c-2.82-1.62-4.85-4-7-6.77,11,3.55,20-1.23,29.1-5.76.4-.2.78-.43,1.17-.64a1.49,1.49,0,0,1,1.87.9,18.73,18.73,0,0,0,7.41,7.71s-.1-.09-.13-.1a2.35,2.35,0,0,1-1-1.19,2.64,2.64,0,0,0-1.13-2.23,2.29,2.29,0,0,1-1.33-1.74,2.92,2.92,0,0,0-.63-2.77,1.34,1.34,0,0,1,.22-1.88c-.28-1.8.78-2.68,2.15-3.61,7-4.76,14.05-9.58,20.68-14.92,1.71.42,2.54,1.87,3.52,3.09,2.68,3.36,6.21,5.72,9.57,8.28a6.65,6.65,0,0,0,2.21.88l0,0a6.91,6.91,0,0,1-.91-.38c-.62-.7-1.06-1.59-2.08-1.84a3.63,3.63,0,0,1-1.88-1.11c-.67-.77-.69-2.11-2-2.27a2.84,2.84,0,0,1-1.09-1.35,3.23,3.23,0,0,0-1.48-2.63,4.07,4.07,0,0,1-.73-1.58,3.19,3.19,0,0,0-.79-3.1c-.3-.67.06-1.18.41-1.69a2.14,2.14,0,0,1,1.74-1.34c1.53,0,2.2-1,3-2a274.76,274.76,0,0,1,24.53-24.92c1.65,0,1.32,1.34,1.32,2.24a65.23,65.23,0,0,0,.83,11.08,31.09,31.09,0,0,0,6.59,15.15c0-.05,0,0,0,0a1,1,0,0,0-.11-.12,3.78,3.78,0,0,1-1-1.55c0-.82.14-1.69-.62-2.32a4.71,4.71,0,0,1-.61-2,3.45,3.45,0,0,0-.63-3.09,4.42,4.42,0,0,1-.06-1.58c.49-1.12-.5-2-.57-3,.08-.53,0-1.08.16-1.6a3,3,0,0,0-.08-2.4c-.24-2-.58-4,1.31-5.55C205.64,231.45,205.37,230.84,205.62,230.41Z"/><path class="cls-2" d="M188.71,179.51c1.93,0,2.32,1.23,2.27,2.86,0,.95.05,1.91.09,2.86.63,6.37-2,11.56-6.1,16.08-5.6,6.12-12.9,8.67-20.9,9.64a126.54,126.54,0,0,1-19.27.33c-10.54-.34-20.85-2-30.42-6.85a37.1,37.1,0,0,1-11.53-9.49,12.6,12.6,0,0,1-2.85-6.57,36.53,36.53,0,0,0-1.06-7.58c-.22-.77.06-1.06.68-1.26.45-1.22,1.32-.94,2.2-.6a2.46,2.46,0,0,0,2.15-.05,2.46,2.46,0,0,1,1.71-.07c.93,1,1.9.89,2.87.06a3.81,3.81,0,0,1,2.66.17,1.75,1.75,0,0,0,2.05.2,3.31,3.31,0,0,1,1.71-.12,3,3,0,0,0,3.18,0,5.86,5.86,0,0,1,1.45,0c1,.25,2,1.11,3.08.26a9.76,9.76,0,0,1,1.43,0,8.78,8.78,0,0,0,3.35.05,6.94,6.94,0,0,1,1.44.05c1,.32,2,1,3.11.24a12.68,12.68,0,0,1,1.51,0,2.81,2.81,0,0,0,3,.06,3.88,3.88,0,0,1,1.82.19,2.76,2.76,0,0,0,2.8-.18A4.06,4.06,0,0,1,143,180a2.23,2.23,0,0,0,2.22,0,3.59,3.59,0,0,1,2.4,0,2.37,2.37,0,0,0,2.24,0,3.59,3.59,0,0,1,2.4,0,2.35,2.35,0,0,0,2.23,0,3.59,3.59,0,0,1,2.4,0,2.38,2.38,0,0,0,2.23,0,3.86,3.86,0,0,1,2.4-.05c.9.59,1.67,0,2.48-.28.52,0,1,0,1.57-.06a3.51,3.51,0,0,0,2.7,0,3.72,3.72,0,0,1,1.87-.25,2.85,2.85,0,0,0,3.06-.11,54,54,0,0,1,6.23-.35,2.9,2.9,0,0,0,3.07,0c.53,0,1.07,0,1.6-.06a4.37,4.37,0,0,0,3.16-.14A1.51,1.51,0,0,1,188.71,179.51Z"/><path class="cls-3" d="M100,188.37c5.48,11.57,15.5,16.86,27.28,19.66,12.27,2.91,24.75,3.09,37.18,1.85,9.95-1,18.46-5.1,23.49-14.42a22.52,22.52,0,0,0,3.12-10.23,46.38,46.38,0,0,1-1.38,16.32c-1.12,4.35-3.45,7.35-6.35,10.62-.57.65-1.45.49-2.23,1.07,1,.45.95,1,.44,1.88a72.72,72.72,0,0,1-4.59,7.13c-1.33,1.71-2.49,2.87-5.21,1.92a64.31,64.31,0,0,0-12.63-2.57,160.36,160.36,0,0,0-38.11-.37c-9.17,1-18,3.54-26.87,6a73,73,0,0,0-7.89,2.51c-1.66.67-2.81,0-3.66-1.42a1.78,1.78,0,0,1,1.35-.38,7.79,7.79,0,0,0,7.48-5.71c1.21-3.95,3-7.65,4.46-11.47A55.16,55.16,0,0,0,100,188.37Z"/><path class="cls-3" d="M98.68,269.91l-3.82-4.25c-1.36-2.19-.86-4.34.31-6.35a25.94,25.94,0,0,1,8.67-9c.66-.42,1.13-1.11,1.88-1.32l-.12.09c-.41.18-.77.39-1.16.52a3,3,0,0,0-2.62,1,1.48,1.48,0,0,1-1.9-.06c-3.45,1.19-7,.7-10.58.84-1.44.06-1.61-.52-1.31-1.69s.49-2.26.74-3.39A6.94,6.94,0,0,1,91.21,243c1.53-1.25,3.11-2.44,4.67-3.66a3.59,3.59,0,0,1,3.69-.84h0c1.26.9,2.64,1.62,4,2.44a9.15,9.15,0,0,0,6.12,1.13c7.53-.88,12.83-4.91,16.43-11.38a20,20,0,0,1,6.39-6.8c2.58-1.76,5.61-1.44,8.54-1.24.74.05,1.08.73,1.28,1.32,2,5.86,6.58,8.05,12.26,8.72a1.81,1.81,0,0,0,2.17-.23c.54-.13,1.09-.21,1.64-.29a2.38,2.38,0,0,0,2.32-.4c.43-.27,1-.28,1.4-.57,2.34-1.09,3.69-3.25,5.39-5,2.41-.43,3.32.09,3.56,2,.12,1.75-.3,2.7-2.31,1.75a7.8,7.8,0,0,0-2.25-.39c-.63-.08-1.34.09-1.32.76,0,1.24-.93,1.44-1.89,1.82,1,.62,2-.2,2.69.61a3,3,0,0,0,1.1,2.76,8.88,8.88,0,0,1,1.54,2.28.75.75,0,0,1,.1.32c.32,1.07-.26,1.31-1.1,1.07a16.26,16.26,0,0,1-2.69-1,20.82,20.82,0,0,0-6.64-1.77c1.27,1.23,2.35,2.22,3.32,3.32.58.66,1,1.36.11,2.12a14.58,14.58,0,0,0-10.39-2.66c-.78.08-1.63.16-1.76,1.15a1.92,1.92,0,0,0,1.22,2.16c3.44,1.58,4.79,4.82,6.21,8,.64,1.42-.76,1.65-1.36,2.25.1,1.11,1.69-.6,1.48.92-1.74,2.62-4.45,3.7-7.26,4.61a1.19,1.19,0,0,0-.83.41,4,4,0,0,1-2.64,1.39,1.74,1.74,0,0,0-1.89.95,3.47,3.47,0,0,1-2,.91,5.25,5.25,0,0,1-.56,0c-2-.49-2-2-1.89-3.64.13-1.82,0-1.89-1.72-1.39-.61.18-1.24.49-1.31-.55-.79-2.75-1.08-2.83-3.6-1.43a16,16,0,0,0-7.21,8.38c-1.48.25-1.56-.82-1.62-1.79a19.21,19.21,0,0,1,1-8.73c.2-.47.37-1,.54-1.44.27-.8.63-1.68-.23-2.29s-1.49,0-2.08.47a16.29,16.29,0,0,0-6.28,10.69c-.1.78.2,2-1.25,1.91-.84-3.94-2-7.86-.32-11.88a2.46,2.46,0,0,0-1-3c-1-.85-1.78,0-2.5.61a21.48,21.48,0,0,0-7.86,15.52c-.12,1.79,0,3.59,0,5.39C103.45,271.5,101.4,271.92,98.68,269.91Z"/><path class="cls-3" d="M150.8,289.62c4.93-.19,9.64-1.53,14.33-2.86a112.67,112.67,0,0,0,26.25-11.46.47.47,0,0,1,.43-.45l1.57.07a.67.67,0,0,0,1.07,0c2.58-.77,5.3-1,7.81-2,4.42-1.86,7.57-4.83,8.63-9.63.28-1.24.91-1.35,1.93-1.12a19.05,19.05,0,0,0,7.48.24c4.25-.76,7-3.57,9-7.23,1.3.72,1.79,1.41.75,3-1.68,2.5-.92,4.73,1.87,5.92,1.35.58,1.53,1.06.82,2.35A15.44,15.44,0,0,0,231.47,279c-1.7-1-3.1-1.69-4.4-2.57-1.89-1.26-4.1-1.78-6.12-2.72-.59-.28-1.88.47-2.93.44a38.8,38.8,0,0,0-11.44,1.35,25.93,25.93,0,0,0-11.88,6.83A67.15,67.15,0,0,1,177,295c-2,1-4.27.67-6.44.57-4.17-.2-8.2-1.36-12.76-2.09,2.85,2.21,4.84,4.89,8.88,5.18a7.81,7.81,0,0,1-3.5,1c-1.08.17-2.15.37-3.21.64-13.92,3.56-27.15,1.2-40-4.62a22.1,22.1,0,0,1-6.67-4.15c3.13.46,5.91,2,8.93,2.85,6,1.67,12,2.87,18.17,1.72a15.4,15.4,0,0,0,9.64-5.8C150.35,290.08,150.66,289.94,150.8,289.62Z"/><path class="cls-3" d="M152,181.05a2,2,0,0,0-1.93,0,2.28,2.28,0,0,0-2.7,0,2,2,0,0,0-1.93,0,2.3,2.3,0,0,0-2.7,0l-1.55-.36c-1,.13-2.11-.34-3.07.36l-1.57-.37c-1,0-2.09,0-3.14,0l-1.5,0c-1-.12-2.12.32-3.06-.38h-1.55c-1,.65-2,.29-3.07,0h-1.56c-1-.14-2.1.32-3-.38h-1.62a2.85,2.85,0,0,1-3,0,3.2,3.2,0,0,0-1.66.36,2.39,2.39,0,0,0-2.66,0c-.58-.37-1.14-.87-1.88-.33a10.76,10.76,0,0,1-3.14-.42l-1.59.37a2.38,2.38,0,0,0-2.61,0,2.39,2.39,0,0,0-1.91-.32c-.37-.6-1.05-1-.84-2,1-4.32,1.1-8.75,1.59-13.13,1.12,1.94,1.77,4.11,3.17,5.93a9.91,9.91,0,0,0,6.54,4A233.07,233.07,0,0,0,135,176.89c6.94.35,13.87.26,20.81.26,6.35,0,12.48-.91,18.28-3.79,9.35-4.64,15-11.52,14.3-22.48a45.17,45.17,0,0,1,2.86,25c-.27,1.72-.5,3.21-2.51,3.59h-1.54c-1,.09-2.12-.28-3.08.36l-1.54,0c-1.06,0-2.11,0-3.16,0l-6.11.38c-1,0-2.07,0-3.11,0l-1.55.39a3,3,0,0,0-3-.07l-1.59.09c-.89.08-1.84-.29-2.67.31a2.32,2.32,0,0,0-2.07,0,2.41,2.41,0,0,0-2.58,0,2.12,2.12,0,0,0-2,0A2.28,2.28,0,0,0,152,181.05Z"/><path class="cls-4" d="M78.29,198.49c1.47-.69,2.39-.44,2.55,1.38a22.14,22.14,0,0,0,.58,2.78,17.84,17.84,0,0,1,1.27,4c.1.44.2.92.72,1a1,1,0,0,0,1-.68c.48-1,1.31-1.87,1.45-3a7.27,7.27,0,0,0,.37-3.81c.5-3.2.93-6.42,1.73-9.56a1.88,1.88,0,0,0,0-1.32c1.85-6.75,1-13.45-.44-20.13a2.33,2.33,0,0,0,.53-1.51c-.55-7.18-1.3-14.32-3.55-21.21a2.55,2.55,0,0,0-.22-.54c-.46-.85-.6-2.19-2-1.82a2.55,2.55,0,0,0-1.86,2.6c-.07,1.62-.41,3.2-.49,4.81a69.8,69.8,0,0,1-1.17,8,1,1,0,0,0,.21.72c-1,.86-2.32.22-3.46.49-.48.11-1.28.15-.83.83,2.14,3.26-1.22,1.05-1.67,1.72l-.45-.33c.9-.33.9-1.13.93-1.88a106.63,106.63,0,0,1,3.81-23.41c.77-3,6-3.8,8.53-1.45a7.32,7.32,0,0,1,1.38,1.93c-2.13-4.12-5.4-3.62-8.73-2.36-.79.31-1,1.13-1.19,1.87a113.35,113.35,0,0,0-3.84,23.5c0,.76-.07,1.46-.9,1.79l-.44-.74a4.6,4.6,0,0,1-.61-3.51,155.41,155.41,0,0,1,4.28-22.43c1.6-4.45,8.45-5.38,11.64-1.57a7.5,7.5,0,0,1,1.08,1.62,21.73,21.73,0,0,1,2.11,6.18,41.35,41.35,0,0,0,2.2,7.84c2.46,6.08,2.86,12.44,2.53,18.91-.12,2.42-.53,4.85-.52,7.25a55.27,55.27,0,0,0,.34,6.93,85.71,85.71,0,0,1,.22,11.44c-.7,6.08-3,11.74-4.49,17.61a38.8,38.8,0,0,1-2.32,5.84c-1,2.38-4.4,3.71-7,3a2.75,2.75,0,0,1-1.88-2c-2-6.24-3.92-12.51-5.38-18.91a1.27,1.27,0,0,1,.48-1.53l.76,0c1.24,3.22,1.67,6.66,2.68,10,.76,2.51,1.44,5,2.37,7.49,1,2.74,3.09,3.16,5.22,1.17a12.3,12.3,0,0,0,2.94-5.33c1.64-4.77,3.34-9.53,4-14.58,1-5.27.45-10.57.4-15.87-.07-6.36.1-12.72-.21-19.08-.2-4.16-1.32-8.14-2.3-12.15-.17-.66-.33-1.32-.36-1.59.56,2.15,1.24,4.69,1.79,7.25a61.24,61.24,0,0,1,1,13.26c0,7,.09,14.11.17,21.16a45,45,0,0,1-.57,7.69,81.3,81.3,0,0,1-4.18,14.59c-.82,2.25-1.66,4.5-4.4,5.15-2.08.49-2.85.2-3.55-1.81a132.61,132.61,0,0,1-4.22-15,6.32,6.32,0,0,0-.77-2.35,3.54,3.54,0,0,1,1.92-.34,142.68,142.68,0,0,0,3.29,14.17c.31,1.06.38,2.49,1.76,2.71s2.39-.83,3.2-2a22.76,22.76,0,0,0,3.29-8.24c.34-1.43,1.16-2.8.8-4.37,1-2.72.73-5.64,1.35-8.42.37-4.23-.07-8.46-.18-12.68-.39-2.1.14-4.18.1-6.28-.19-9.49-1.6-18.84-2.87-28.2a14.15,14.15,0,0,0-3.33-7.05c-1.2-1.45-2.74-1.17-4.26-.83a2.94,2.94,0,0,0-2.41,2.74c-.65,3.82-1.37,7.63-1.93,11.47-.24,1.71-.24,3.45-.46,4.53.36-5.17,1.49-10.86,2.47-16.57a2.79,2.79,0,0,1,2.47-2.24c1.42-.31,3-.51,4.07.81a14.76,14.76,0,0,1,3.42,7.4c1.31,9.51,2.7,19,2.74,28.64a4.8,4.8,0,0,0,.16,1.11c-.66,3.75.43,7.49-.08,11.23a18.78,18.78,0,0,0,.07,5.94c-.51,3-.59,6.14-1.42,9.13-.68,4.25-1.58,8.41-4.16,12a5.27,5.27,0,0,1-1.06,1.24c-1.54,1.16-2.77.84-3.36-1A77.8,77.8,0,0,1,78.29,202C78.1,200.84,77.19,199.66,78.29,198.49Z"/><path class="cls-3" d="M182.49,137.06c-1.75-1.3-3.42-2.72-5.26-3.86-3.35-2-6.84-2.77-10.59-.84-2.15,1.1-4.6,1.07-6.95,1.34a64.82,64.82,0,0,1-32.44-4.37c-4.09-1.67-7.91-4-12.35-4.78-9-1.61-17.48.09-25.78,3.42a4,4,0,0,0-.76.56C85,126,81.3,126.3,77.22,127.45c1.14-1.82,2.25-3.19,4.07-3.49,13.26-2.23,26.58-3.19,39.87-.35,7.41,1.59,14.66,3.84,22.09,5.38a52.64,52.64,0,0,0,25.2-1c6-1.69,9.34.89,12,5A10.31,10.31,0,0,1,182.49,137.06Z"/><path class="cls-4" d="M136.94,256.31c1,.08,1.47-.93,2.36-1.09.61-.1,1.23-.51,1.82-.06s.23,1.16.14,1.76c-.13.81-.32,1.62-.38,2.43a2,2,0,0,0,1.14,2c.2.49.24-.06.36-.06l1.46-1.16c1.1,0,1.65-.83,2.34-1.46.73.18,1.58.58,1.57-.77.62-.37,1.08-1.11,2-.81,2,.07,3.32-1.55,5-2.26a13.24,13.24,0,0,1,2.33-1.22c.07,2.76.35,5.52-.48,8.23a3.65,3.65,0,0,1-1.51,2.13q-7.71,5.26-15.37,10.63c-.82.58-1.22.61-1.79-.3-2.74-4.35-4-8.95-2.92-14.12A10.19,10.19,0,0,1,136.94,256.31Z"/><path class="cls-4" d="M154.26,234c-.92-.26-1.83-.57-2.77-.78-4.7-1-8.18-3.61-9.85-8.24a2.4,2.4,0,0,0-2.72-1.83,13.1,13.1,0,0,0-11.59,7.33c-2.41,4.41-5.5,8.19-10.12,10.49a22.79,22.79,0,0,1-9.09,2.23c-3.75.19-6.44-1.74-8.56-4.64,8.17,1.67,15.16-1,21.6-5.81a78.36,78.36,0,0,0,10.6-9.5,3.52,3.52,0,0,1,3-1.3,17.43,17.43,0,0,0,2.89,0,9.71,9.71,0,0,1,8.51,3.14,20.38,20.38,0,0,0,15.88,6.18,1.31,1.31,0,0,0-.46,1.24c-.92.54-2.06.11-3,.68l-1.55.41C156.12,233.62,155.12,233.33,154.26,234Z"/><path class="cls-3" d="M107.27,277.57c-1.27-7.06-3-14.12.06-21.18a21.3,21.3,0,0,1,5.7-7.64c.35-.3.66-1,1.26-.49a1.45,1.45,0,0,1,.52,1.71c-.65,1.88-1.22,3.78-1.9,5.64a22.94,22.94,0,0,0-1.42,11.33,10.44,10.44,0,0,0,2.66,6.09c2.32,2.31,3.26,5.31,4.79,8a2.43,2.43,0,0,1-2.71,1.65A9.84,9.84,0,0,1,107.27,277.57Z"/><path d="M67.88,169.48c4.31,9.07,4.81,18.22.53,27.45-.29.61-.44,1.54-1.28,1.53s-.85-1-1.1-1.6A80.44,80.44,0,0,1,62.73,186a18.79,18.79,0,0,1-.65-5.32,16.13,16.13,0,0,1,3-10.57C65.77,169.23,66.68,168.48,67.88,169.48Z"/><path class="cls-4" d="M116.2,262.08c.54-1,.25-2.14.47-3.21a17.44,17.44,0,0,1,7.08-10.64c.82-.62,2-1.56,2.92-.75a3,3,0,0,1,.53,3.73,18.22,18.22,0,0,0-1.81,9.53,3.57,3.57,0,0,0,.74,2.52c-1.28,3.2-.95,6.7-1.83,10.25C120.94,270,117.12,267.09,116.2,262.08Z"/><path class="cls-4" d="M80.18,224a140.32,140.32,0,0,1-7.88-23.12c-.37-1.34.38-1.7,1.27-2.13.88.27.78,1,.93,1.73a170.66,170.66,0,0,0,5.56,18.82c1.29,3.67,4.36,4.19,6.93,1.27a8.29,8.29,0,0,0,1.91-3c1.87-6.28,4.61-12.3,5.75-18.8a27.23,27.23,0,0,0,.83-5.82c.26-5.05-.48-10.05-.69-15.09-.12-2.93.54-5.83.61-8.78.14-6.29.62-12.58-2.37-18.51a41.69,41.69,0,0,1-2.8-7.83c-.47-1.73-.54-3.55-1.32-5.19-2.17-6.26-6.85-5.86-10.85-4.4-1.52.55-1.6,1.9-1.92,3.15-1.26,3.09-1.74,6.39-2.47,9.61-1.06,4.62-1.58,9.32-2.19,14A1.42,1.42,0,0,1,71,161c-.51-.55-1.48,0-1.89-.8,1.12-1.61.89-3.54,1.14-5.32a130.45,130.45,0,0,1,3.41-16.61c.62-1.88,1.13-3.79,1.79-5.67a3.27,3.27,0,0,1,1.86-2c6.25-2.93,12.15.11,13.33,6.88.12.7.29,1.38.41,2.08.77,3.79,2.72,7.07,4.48,10.43a20.5,20.5,0,0,1,2.44,9,78.84,78.84,0,0,1-1.28,18.14,8.24,8.24,0,0,0,0,3.63,24.94,24.94,0,0,1,.7,6.08,46.48,46.48,0,0,1-2.27,19.27c-1.24,3.73-2.92,7.3-4.16,11a17.76,17.76,0,0,1-2.07,5C86.61,225.33,83.43,226.07,80.18,224Z"/><path class="cls-5" d="M72.53,181.06a36.45,36.45,0,0,0-7-17.68c-.3-.4-.76-.88-.5-1.36s.94-.2,1.43-.28c2.75-.49,4.47.68,6,3a57.66,57.66,0,0,1,7.49,15.12,5.29,5.29,0,0,1-.26,3.53c-.59,1.33-1.47,2.42-3.13,2.34s-2.54-1.11-3.14-2.54A8.35,8.35,0,0,0,72.53,181.06Z"/><path class="cls-3" d="M112.61,138.24l1.62.35c1-.22,2.14.41,3.08-.4l1.56.4a2.19,2.19,0,0,1,2.7.09,38,38,0,0,0-13.94,4.64c-4.93,2.68-7.43,6.7-7.27,12.34,0,.51-.08,1-.12,1.53-.41-5.63-3.75-10.07-6.09-14.92-.38-.77-1.38-1.77.23-2.44l1.66-.48c1,.53,2-.25,3,.1l1.67-.46c1,.68,2-.36,3,.07l1.63-.48c.93.78,1.85.08,2.78,0,.75.55,1.33.08,1.93-.31A2.38,2.38,0,0,0,112.61,138.24Z"/><path class="cls-3" d="M205.25,244.32l.06,1.55a8,8,0,0,0,.7,3.07,2.54,2.54,0,0,0,.78,1.67c-.62,1,.17,1.78.43,2.64l.79,1.52c0,.42,0,.87-.39,1.17a21.81,21.81,0,0,1-6.62-11,52.71,52.71,0,0,1-1.89-15.76c0-.87.24-1.8-.41-2.58.84-.77,1.67-1.55,2.51-2.3.28-.24.57-.61,1-.42s.27.67.28,1c.08,2,.12,4.09,1.31,5.88.27.41.54.95,1.14.86s.43-.84.7-1.23c-.24,1.54-.44,3.09-.75,4.61a3.14,3.14,0,0,0,0,2,2.33,2.33,0,0,0,0,2.67l-.07,1.68C205,242.38,204.66,243.41,205.25,244.32Z"/><path class="cls-5" d="M72.53,181.06c.88.5,1.2,1.44,1.75,2.21,1.56,2.2,3.22,2.13,4.54-.19a6.6,6.6,0,0,0,1.07-3.22c1.79,4.71,2.42,9.66,3,14.61.2,1.62-.51,2.28-2.13,2.45-5.22.55-5.21.6-6.69-4.49a1.56,1.56,0,0,0-.1-.37C72,188.6,72.46,184.8,72.53,181.06Z"/><path class="cls-3" d="M112.7,230.89a20.22,20.22,0,0,1-11.56-.1,4.12,4.12,0,0,1-1-.51c-.8-.55-1.79-1.19-1.67-2.19s1.3-.83,2-1.07c1.28-.41,2.6-.72,3.91-1,2-.44,3.75-.95,5.81.36s6.52-.26,7.79-2.43a1.68,1.68,0,0,1,1.29-1,41.4,41.4,0,0,1,8.17-.6,35.17,35.17,0,0,1-5.95,4.61A92.29,92.29,0,0,0,112.7,230.89Z"/><path class="cls-3" d="M128.89,225.09A54.42,54.42,0,0,1,116.4,235c-5,2.69-10.32,4.27-16.1,2.86-.53-1,.1-1.53.8-2a18.7,18.7,0,0,1,7.32-3.34c6.63-.47,12.11-3.62,17.33-7.39a9.12,9.12,0,0,1,1.69-.76C128.14,224.09,128.82,224.07,128.89,225.09Z"/><path class="cls-4" d="M99.57,238.54c-3,.8-5,3.28-7.41,5-1.21.83-2.27,1.87-3.39,2.81A34,34,0,0,0,87,232.44c-.32-.87-.12-1.34.72-1.63.54-.19,1.09-.38,1.62-.61,1.68-.74,2.62-.64,3.24,1.53C93.61,235.17,96.55,237,99.57,238.54Z"/><path class="cls-4" d="M113.33,269.89a12.91,12.91,0,0,1-1-8.91c.8-1.82,1-1.88,2.19-.76,1,4.45,2.71,8.4,6.41,11.48,1.84,1.53,4,3.35,4,6.25a2.8,2.8,0,0,1-4.14,1.62,2.71,2.71,0,0,1-1.41-1.26c-1.06-2.93-3.36-4.9-5.32-7.14C113.75,270.78,113.77,270.21,113.33,269.89Z"/><path class="cls-4" d="M96,193a43.2,43.2,0,0,1-3.19,15,55.76,55.76,0,0,0-3.1,9.1c-.73,3.68-3.26,6.19-6,6.47a2.74,2.74,0,0,1-3.27-2A167.75,167.75,0,0,1,74,200.2c-.1-.5-.27-1-.41-1.49-.12-.31-.45-.73,0-.92.87-.33.86.6,1.24,1,.7,5.17,2.41,10.09,3.84,15.07.46,1.6,1,3.16,1.52,4.76a2.33,2.33,0,0,0,2.53,1.85,5.78,5.78,0,0,0,5.47-3.23c1.62-2.9,2.3-6.11,3.2-9.25,1.24-4.31,2.72-8.56,3.13-13.07C95.07,194.3,94.79,193.07,96,193Z"/><path class="cls-3" d="M163.16,256a4,4,0,0,1-.82-2.5c0-4.56-2.33-7.56-6.19-9.6-1.41-.74-2.85-1.44-4.28-2.14-.44-.22-1.09-.32-1-1s.78-.55,1.26-.58c5.52-.3,9.55,2.29,12.68,6.59.79,1.08,1.54,2.2,2.3,3.3C167.87,253.15,166.15,255.7,163.16,256Z"/><path class="cls-4" d="M104.13,248.64l1.53-.43c.81,0,1.48-1,2.39-.32l-7,5.75a22.53,22.53,0,0,0-5.1,6.23,10.31,10.31,0,0,0-1.1,5.79c-1.6-1.26-3.17-2.57-4.82-3.76-.75-.54-.64-.95-.15-1.53,2.22-2.63,4.43-5.28,6.66-7.9.89-1.05,2.7-.5,3.37-1.92l1.53-.78C102.39,249.49,103.45,249.51,104.13,248.64Z"/><path class="cls-4" d="M80.18,224a6.06,6.06,0,0,1,1.13,0c4,.79,7.45-1,8.52-4.95,1.46-5.41,3.88-10.47,5.32-15.85a40.6,40.6,0,0,0,1.7-11.76c0-1.54,0-3.08,0-4.61.48.05.62-.26.58-.64a.76.76,0,0,1,.6-.95,36.55,36.55,0,0,1,.1,10.34,55.7,55.7,0,0,1-4.58,16.84c-1.25,3-2.51,5.89-3.47,9a6.87,6.87,0,0,1-6,5C81.52,226.73,81.1,226.5,80.18,224Z"/><path class="cls-4" d="M161.67,241.84c-.93-2.5-3.06-3.82-5.11-5.24-.42-.29-1.32-.38-1-1.13.26-.59,1-.36,1.57-.29a31.28,31.28,0,0,1,10.09,2.92c.42.21.93.92,1.43,0,1,2.71.21,5.27-.77,7.75-.39,1-1.3,1.47-2.18.22A21.29,21.29,0,0,0,161.67,241.84Z"/><path class="cls-3" d="M98.07,185.22c-.25,1.21.32,2.54-.65,3.87-.2-.88-.37-1.58-.53-2.28a20.88,20.88,0,0,0-.4-3.82c-1.34-4.46.32-8.77.53-13.14.27-5.69,1.07-11.43-1.15-16.93-1-2.44-2.21-4.77-3.34-7.14a19.79,19.79,0,0,1-1.93-6.42c-.17-.29-.18-.63.11-.78s.54.1.64.42c.8,3.78,3,7,4.78,10.24A22.6,22.6,0,0,1,98.74,159a70.31,70.31,0,0,1-1.27,17.08C96.89,179.28,98,182.17,98.07,185.22Z"/><path class="cls-5" d="M84.25,196a65,65,0,0,0-5.63-22.68,67.81,67.81,0,0,0-4.08-7.43c-.31-.5-1-1.1-.27-1.65a1.64,1.64,0,0,1,2,.13A6.38,6.38,0,0,1,77.6,166c4.8,8.06,7,16.91,8,26.14C85.72,193.44,85.2,194.51,84.25,196Z"/><path class="cls-3" d="M126.91,265.19a13.74,13.74,0,0,1,7.11-9.32c.42-.23,1-.91,1.48-.23.37.48-.14.94-.39,1.37-1.15,2-2.6,3.79-3.61,5.88-1.76,3.66-1.91,7.27.16,10.85a2.53,2.53,0,0,1,.35,1.46c.25.92.32,1.83-.76,2.25a2,2,0,0,1-2.36-.79c-1.35-1.75-1.7-3.91-2.14-6A13.39,13.39,0,0,1,126.91,265.19Z"/><path class="cls-4" d="M108.42,232.44c-2.14,1.29-4.29,2.56-6.42,3.87a4.06,4.06,0,0,0-1.7,1.51,10.74,10.74,0,0,1-7.12-6.69c-.28-.76-.59-1.79.54-2.11s3-1.77,3.84-.36c2.09,3.34,5.33,3.37,8.56,3.72C106.88,232.46,107.65,232.42,108.42,232.44Z"/><path class="cls-3" d="M181.63,271.83c-3.45-.46-6.13-2.44-8.75-4.48a35.8,35.8,0,0,1-8.14-8.82,19.47,19.47,0,0,1,4.66-3.72,2,2,0,0,0,.4,1.55c.22,1,.91,1.93.75,3l.85,1.25a26.57,26.57,0,0,0,1.5,2.71,2.15,2.15,0,0,0,.83,1.16c.81.68,1.28,1.69,2.22,2.23.35.62,1.07.71,1.59,1.1.05,1.2,1.39,1.2,1.88,2a4.34,4.34,0,0,1,2,.65C181.28,271,182.31,271.26,181.63,271.83Z"/><path class="cls-5" d="M84.14,178.32a54.75,54.75,0,0,0-6.79-14.78c-.88-1.4-.77-1.92,1-1.81,1.15.07,2.3,0,3.45.06,1.23.57,1.58,1.8,2,2.88,1.38,3.62,2.84,7.23,2.8,11.2a3.06,3.06,0,0,1-.54,2.2A1.26,1.26,0,0,1,84.14,178.32Z"/><path class="cls-5" d="M84.14,178.32c1.27-.29,1.43-1.26,1.51-2.35.26-3.86-1.44-7.25-2.57-10.77-.38-1.16-.88-2.27-1.32-3.41.81-.06,1.59,0,2,.85,3.94,8.51,5.5,17.29,2.91,26.55A103.15,103.15,0,0,0,84.14,178.32Z"/><path class="cls-5" d="M198.28,177.26a89.71,89.71,0,0,0-5-14.33c.12-1.33,1-1.21,2-1.05a7.39,7.39,0,0,1,3.07,1.82,22.46,22.46,0,0,1,2.4,7.65,9.14,9.14,0,0,1-.21,4.53C200.16,176.9,199.59,177.7,198.28,177.26Z"/><path class="cls-3" d="M79,160.15c-.68-.24-.5-.79-.47-1.3.34-4.81,1-9.58,1.6-14.36a2,2,0,0,1,1.88-2c1.19-.21,1.75.33,2.23,1.33,2.27,4.78,2.89,10,3.65,15.11.48,3.24.57,6.53.82,9.8,0,.35.16.88-.27,1s-.56-.42-.85-.65h0c-1.58-5.9-1.46-12-2.54-18a27.32,27.32,0,0,0-.63-2.82c-.24-.82-.76-1.43-1.64-1.31s-1.13.79-1.13,1.57c0,1.61-.5,3.18-.43,4.79a1.91,1.91,0,0,1-.93,2Z"/><path class="cls-4" d="M88,189.21c.73,1.52-.14,3-.09,4.53a30.89,30.89,0,0,1-.67,6.63,4.21,4.21,0,0,0-.86,3.84A7.29,7.29,0,0,1,84.15,209c-.61.56-1.59,1-1.87,0-.57-2-1.6-4.06-.86-6.29,1.12.13,1.34-.84,1.73-1.5A40.65,40.65,0,0,0,88,189.21Z"/><path class="cls-3" d="M173.25,245.15c1.29-5-.74-8.57-4.57-11.49a14.84,14.84,0,0,1-1.51-1.46c-.36-.38-1.29-.56-.83-1.25.33-.52,1.08-.1,1.61,0,5.54,1.43,8.27,5.42,9.57,10.67.24,1.43.14,2.74-1.22,3.65C175.24,246,174.22,246.26,173.25,245.15Z"/><path class="cls-4" d="M98.68,269.91c2.15.52,4.2.59,5.86-1.22a64.14,64.14,0,0,1,1.21,7.57c.13,2.62,1.64,4.8,2.93,7.69-2.05-1-4-1.41-4.6-3.27A52.19,52.19,0,0,0,98.68,269.91Z"/><path class="cls-6" d="M67.88,169.48a3.59,3.59,0,0,0-2.72,2.2,31.76,31.76,0,0,0-3.08,9,34.09,34.09,0,0,1-.19-11.4,48.94,48.94,0,0,1,1-5.45c.23-1,.76-1.12,1.4-.25A30.17,30.17,0,0,1,67.88,169.48Z"/><path class="cls-4" d="M91.35,139q-.6-.27-.75.36a17.53,17.53,0,0,0-2-5.53c-3-4.51-8.61-3.77-11.85-1.87-1.24.72-1.21,2.33-1.75,3.54-.38.87-.36,1.9-.92,2.71-.42.34-.13,1.39-1.13,1.15a61.32,61.32,0,0,1,2.65-8.79,2.13,2.13,0,0,1,.76-1.08A9.18,9.18,0,0,1,90,133.63,23.73,23.73,0,0,1,91.35,139Z"/><path class="cls-3" d="M166.33,226.25c-3.71,4.71-5.75,5.31-11.29,3.19-3.56-1.36-6.94-3-9.58-5.91.66-1.79,1.79-.69,2.79-.46l2.21,1.27a7.09,7.09,0,0,0,5.12,2.6c2.86.4,5.82.87,8.39-1.14l.38-.38C165.17,225.31,166.18,224.75,166.33,226.25Z"/><path class="cls-3" d="M145.5,285.36a2.72,2.72,0,0,0,1.13,1.1c0,.88,1.53.85,1.1,2-4.61-1.25-7.65-4.36-9.94-8.37-.34-.6-.47-1.35-1.19-1.68a22.44,22.44,0,0,0,2.91-1.79c1.12-.93,1.86-1,2.4.49a2.66,2.66,0,0,0,.82,1.71c-.56,1,.33,1.82.45,2.74.09.71.7,1,1.15,1.42C144.18,284,145.17,284.52,145.5,285.36Z"/><path class="cls-4" d="M126.91,265.19c-.41,3.56,1.22,6.71,2.1,10a1.91,1.91,0,0,0,2,1.54c1,0,.89-.88,1-1.53.19.88.37,1.75.59,2.61s-.23,1.08-.78,1.35c-1.1.53-2.22,1-3.3,1.57-.85.43-1.15-.09-1.46-.7a11.66,11.66,0,0,1-1.45-5.55A34,34,0,0,1,126.91,265.19Z"/><path class="cls-5" d="M193.51,167.07a36.71,36.71,0,0,1,3.15,9c.59,2.49.82,5.06,1.37,7.57a3.19,3.19,0,0,1-1.27,3.48c-.83-1.43-.73-3.05-1-4.55a37.23,37.23,0,0,0-1.83-7.27C192.7,172.58,193.58,169.84,193.51,167.07Z"/><path class="cls-4" d="M78.29,198.49c.38,5,1.71,9.83,3,14.67.41,1.6,1.5,1.83,2.93.74,2.29-1.75,3.1-4.33,3.73-7,.43-1.8.76-3.62,1.14-5.44.55-.08.93-1,1.62-.33a36.73,36.73,0,0,1-4.82,13.66,3.28,3.28,0,0,1-3.13,1.56c-1.21,0-1.34-1.24-1.64-2.12a127.5,127.5,0,0,1-3.69-13.73,2.79,2.79,0,0,1,.14-2.05Z"/><path class="cls-5" d="M113.33,269.89c1.44,1.35,2.6,3,4.42,3.93.79.41.86,1.39,1.22,2.12,1.61,3.3,2.76,3.7,6,2,.1.24.23.46.32.7,1.13,3.16,1.11,3.13-2.15,4.21a1.83,1.83,0,0,1-2.56-.89c-.17-.34-.48-.6-.68-.93-1.88-3.17-3.14-6.72-5.85-9.39C113.63,271.24,113.56,270.49,113.33,269.89Z"/><path class="cls-4" d="M107.27,277.57a22.4,22.4,0,0,0,4.2,2.93,8,8,0,0,0,7.47.54c2,2.47,1.92,2.58-1.09,3.09l-.38.06C110.28,285,109.92,285.14,107.27,277.57Z"/><path class="cls-5" d="M192.73,176.59a38.54,38.54,0,0,1,2.53,11.49c.11,1.34.26,2.68.34,4a1.07,1.07,0,0,1-1.15,1.24c-.69,0-1.46-.11-1.41-.92.3-5.07-1.1-10.07-.53-15.14A3.07,3.07,0,0,1,192.73,176.59Z"/><path class="cls-4" d="M131.88,264a5.47,5.47,0,0,1,1.38-2.33c.12.28.25.44.24.59a17.67,17.67,0,0,0,2.69,11.32c1.6,2.59,1.38,2.73-1.53,4a1.48,1.48,0,0,1-1.17-1.54,12.18,12.18,0,0,0-1.23-4.47C131.15,269.1,131.43,266.54,131.88,264Z"/><path class="cls-3" d="M86.05,165.2l-.87-2.62a18,18,0,0,1-.92-6.22,7,7,0,0,0-.69-3.51,5.13,5.13,0,0,0-.81,2.48c-.1.57-.11,1.21-1,1l-.47-.72a10.77,10.77,0,0,1-.2-4.95,19.35,19.35,0,0,0,.27-3.22,1.87,1.87,0,0,1,1.5-2.15c1.26-.28,1.25.91,1.46,1.61a60.83,60.83,0,0,1,2,12.43c.12,1.46.64,2.89.43,4.37C86.71,164.29,87,165.08,86.05,165.2Z"/><path class="cls-5" d="M172.12,238.94a4.55,4.55,0,0,1,.75,3.13,64.64,64.64,0,0,0-.47,7.49c0,1.66-1,2.75-2.48,2.42-1.27-.28-1.61-1.87-1.46-3.16a30.61,30.61,0,0,1,.89-3.73c1.66-.26,1.46-1.64,1.61-2.76S170.66,239.71,172.12,238.94Z"/><path class="cls-5" d="M160.2,248.55a6.37,6.37,0,0,1,1.35,3.94,11.35,11.35,0,0,0,.8,3.94,1.86,1.86,0,0,1-.71,2.51c-1.14.8-2.19,1.72-3.77,3a33,33,0,0,0,.37-6.75c1.66-.82,1-2.35,1.08-3.64C159.37,250.45,158.75,249.21,160.2,248.55Z"/><path class="cls-4" d="M86.05,165.2c.93-2.41,0-4.81-.18-7.18A50.69,50.69,0,0,0,84,147.24c-.18-.62-.13-1.59-1.15-1.47-.85.1-1,.87-1.05,1.61l-.51,8.25-1-.39c.25-2.56.5-5.11.74-7.67a2.84,2.84,0,0,1,.72-2.12c1.12-1,2.12-.81,2.69.58,1.28,3.14,1.54,6.5,1.92,9.81.51,4.4.83,8.83,1.23,13.24Z"/><path class="cls-3" d="M71,161a117.9,117.9,0,0,1,4.31-23.72,7,7,0,0,1,.7-1.36c.35-.11.51,0,.43.38-2.22,8.48-4.1,17-4.29,25.84C71.55,161.93,71.31,161.4,71,161Z"/><path class="cls-3" d="M72.9,139.36,74,138.21c-.88,4.67-2.17,9.25-2.81,14-.3,2.22-.62,4.45-.92,6.67-.1.73-.17,1.47-1.21,1.33a103,103,0,0,1,2.53-16A21.53,21.53,0,0,1,72.9,139.36Z"/><path class="cls-4" d="M160.2,248.55c0,1.89-.07,3.78-.08,5.67,0,1.58-.54,2-1.88.95.8-4-.84-7.31-3-10.57A8.34,8.34,0,0,1,160.2,248.55Z"/><path class="cls-5" d="M198.31,163.7c-1.72,0-3.17-1.62-5-.77-.27-1.31-.53-2.63-.81-3.94a1.19,1.19,0,0,1,.87-1.48,1.24,1.24,0,0,1,1.63.58A29.42,29.42,0,0,1,198.31,163.7Z"/><path class="cls-4" d="M172.12,238.94a40,40,0,0,1-.89,6.07,1.32,1.32,0,0,1-1,1.08c-.74.12-.76-.52-.9-1,1.58-3.2.81-6.39-.34-9.94A7.65,7.65,0,0,1,172.12,238.94Z"/><path class="cls-5" d="M198.28,177.26c2.35-1.33,2.51-3.57,2.43-5.91a26.66,26.66,0,0,1-.92,12.64l-.51.06Q198.78,180.65,198.28,177.26Z"/><path class="cls-4" d="M173.25,245.15c2.62.29,3.61-1.4,4.27-3.5,1.26,1.53,1.26,2.84-.39,4.2a42.88,42.88,0,0,0-3.71,3.9A16.55,16.55,0,0,1,173.25,245.15Z"/><path class="cls-5" d="M131.88,264a19.05,19.05,0,0,0,1.72,9c.68,1.42-.18,3.26,1.06,4.59-1,.62-1.42,0-1.54-.87a17.39,17.39,0,0,0-1.49-4.7A10,10,0,0,1,131.88,264Z"/><path class="cls-4" d="M164,225.8a3.3,3.3,0,0,1-2.64,1.71,13.8,13.8,0,0,1-9.34-1.12,2.46,2.46,0,0,1-1.53-2C154.76,226.66,159.21,227.64,164,225.8Z"/><path class="cls-4" d="M81.78,156.35c.79-1.39.48-3,.72-4.45.11-.63.1-1.42.92-1.45s.78.79.87,1.3a70,70,0,0,1,.89,10.83,5.22,5.22,0,0,1-1.08-2,16.11,16.11,0,0,1-.54-5.74c-.37,1.06.57,2.44-.64,3.45C82.55,157.64,81.91,157.15,81.78,156.35Z"/><path class="cls-2" d="M162.81,225.43a13.92,13.92,0,0,1-9.12-.38c-1.11-.42-2.16-1-3.23-1.5.88-1.48,1.87-.35,2.82-.1l1.82.54c2.08.49,4.2-.5,6.27.22C162,224.43,162.89,224.36,162.81,225.43Z"/><path class="cls-4" d="M168.57,237.82a38.11,38.11,0,0,0-5.52-4.2c1-.74,2.15-.16,2.88-.84C167.71,234,168,236,168.57,237.82Z"/><path class="cls-4" d="M163.16,256c2.19-1.39,4.24-2.87,4-5.91,1.68,3,1.68,3-.91,5.08l-1.94,1.56C163.16,257.66,163.24,256.71,163.16,256Z"/><path class="cls-4" d="M128.89,225.09c-1-.78-2.1.16-3.14,0,1.35-1.1,2.29-2.8,4.25-3,.42,0,1-.2,1.23.24s-.27.79-.56,1.09C130.1,224,129.48,224.52,128.89,225.09Z"/><path class="cls-2" d="M112.7,230.89c-.14-.11-.39-.33-.19-.41,3-1.28,5.66-3.22,9-3.51A26.16,26.16,0,0,1,112.7,230.89Z"/><path class="cls-5" d="M68.57,199.33l2.24-4.54C72.8,197.6,72.44,198.35,68.57,199.33Z"/><path class="cls-3" d="M82.92,158.3c.07-1.53.13-3.05.21-4.58a2.65,2.65,0,0,1,.42-1.31,29.92,29.92,0,0,1,.55,8.18Z"/><path class="cls-4" d="M162.81,225.43a12.24,12.24,0,0,0-5.49-1.13,4,4,0,0,1-2.22-.31c2.94.07,5.89-1.42,8.85.2C163.92,224.82,163.39,225.14,162.81,225.43Z"/><path d="M114.24,225.36c-1.11.75-2.34.46-3.54.4a.67.67,0,0,1-.7-.53c0-.41.34-.52.64-.59,1.53-.36,3-1.13,4.66-.36C115.45,225.13,114.6,225,114.24,225.36Z"/><path class="cls-3" d="M186.46,146.64a32.4,32.4,0,0,0-6.65-3.78c.42-.59,1.06-.34,1.61-.44l1.5.43A4.84,4.84,0,0,1,186.46,146.64Z"/><path d="M72.36,190.89c.5,1.51,1,3,1.5,4.53.13.41.3,1-.3,1.14s-.65-.32-.76-.67C72.3,194.28,71.47,192.72,72.36,190.89Z"/><path class="cls-4" d="M171,228.23c-.76-1.42-2.47-1.17-3.56-2,.84-1.44,2.1-1.41,3.31-.71S171.16,227.29,171,228.23Z"/><path class="cls-5" d="M114.51,260.22c-1.06-.69-1.63,0-2.19.76a15.68,15.68,0,0,1,1.26-4.76C114.43,257.63,114.14,259,114.51,260.22Z"/><path class="cls-5" d="M80.91,157.64c.84.89,1.59,1.63,1.15,2.69-.18.41-1.06.36-1.38,0C79.82,159.49,80.59,158.69,80.91,157.64Z"/><path class="cls-4" d="M153.28,223.45c-.94.21-1.9-.36-2.82.1l-1.67-1.13C151.1,221.91,152.33,222.22,153.28,223.45Z"/><path class="cls-4" d="M166.33,226.25l-2-.83a4.75,4.75,0,0,1,.59-.75,1.47,1.47,0,0,1,2.08,0C167.73,225.39,166.78,225.79,166.33,226.25Z"/><path class="cls-4" d="M148.25,223.07c-.93.14-1.93-.15-2.79.46-.31-.38-.8-.75-.49-1.28s.78-.23,1.21-.26A2.56,2.56,0,0,1,148.25,223.07Z"/><path class="cls-5" d="M82.17,200.25c-.39-1.05-.68-1.76.22-2.27.27-.15.75-.28.85,0C83.56,198.91,82.8,199.41,82.17,200.25Z"/><path class="cls-2" d="M114.24,225.36l1.06-1.08c.44-.52.82-1.19,1.73-.62C116.44,224.83,115.34,225.1,114.24,225.36Z"/><path class="cls-5" d="M108.08,138.56c-.92,1.11-1.84,1.37-2.78,0A4.09,4.09,0,0,1,108.08,138.56Z"/><path class="cls-5" d="M99,139.45c-1,.38-2.05,1.32-3-.1C97.05,139.12,98.06,138.59,99,139.45Z"/><path class="cls-5" d="M169.57,140.93a2.75,2.75,0,0,1,3,.23C171.41,142,170.49,141.37,169.57,140.93Z"/><path class="cls-5" d="M154.17,139.14c-.17.31-.18.4-.23.41a2.74,2.74,0,0,1-2.52-.18c-.08,0-.08-.44,0-.47A3.51,3.51,0,0,1,154.17,139.14Z"/><path class="cls-5" d="M103.67,139.06c-1,.43-2,1.29-3-.07C101.7,138.88,102.7,138.13,103.67,139.06Z"/><path class="cls-5" d="M159.23,139.76a4.68,4.68,0,0,1-3.74-.14C156.87,138.86,157.77,139.2,159.23,139.76Z"/><path d="M131,138.27a3.77,3.77,0,0,1-3,.08A2.59,2.59,0,0,1,131,138.27Z"/><path d="M127,138.23a7.4,7.4,0,0,1-3.67.3C124.64,137.55,125.53,137.78,127,138.23Z"/><path class="cls-5" d="M121.57,138.68l-2.7-.09c.52-1.44,1.68-.5,2.53-.63C121.83,137.9,122,138.3,121.57,138.68Z"/><path class="cls-5" d="M136.13,138.36a4.86,4.86,0,0,1-3.48,0C133.77,137.62,134.66,137.81,136.13,138.36Z"/><path d="M117.31,138.19c-.89,1.16-2,.72-3.08.4C115.16,137.7,116.26,138.13,117.31,138.19Z"/><path d="M181.42,142.42c-.39.71-1.07.31-1.61.44-.42-.14-.91-.13-1.23-.69A3.1,3.1,0,0,1,181.42,142.42Z"/><path d="M174.16,141.54a3.19,3.19,0,0,1,3.05.36A3.2,3.2,0,0,1,174.16,141.54Z"/><path class="cls-7" d="M145.29,138.77a4.21,4.21,0,0,1-3.18-.16A3.1,3.1,0,0,1,145.29,138.77Z"/><path class="cls-8" d="M112.61,138.24c-1,1-1.79,1-2.6,0Z"/><path d="M165.26,140.37a2.36,2.36,0,0,1,2.46.29A2.22,2.22,0,0,1,165.26,140.37Z"/><path class="cls-5" d="M163.15,140.12a2.34,2.34,0,0,1-2.55-.18A2.45,2.45,0,0,1,163.15,140.12Z"/><path class="cls-5" d="M140.72,138.48a3.84,3.84,0,0,1-3.65-.08A5.33,5.33,0,0,1,140.72,138.48Z"/><path class="cls-9" d="M149.32,139a2.28,2.28,0,0,1-2.55-.14A2.3,2.3,0,0,1,149.32,139Z"/><path d="M191.81,274.85l-.43.45a2.71,2.71,0,0,1-2.25-1.27C190.08,274.07,191.07,273.91,191.81,274.85Z"/><path d="M170.55,259.4c-.5-.95-1.28-1.83-.75-3C170.58,257.25,171.4,258.12,170.55,259.4Z"/><path d="M206,248.94a2.17,2.17,0,0,1-.7-3.07A3.71,3.71,0,0,1,206,248.94Z"/><path d="M143.18,281.51c-.59-.84-1.91-1.56-.45-2.74C142.83,279.69,143.76,280.47,143.18,281.51Z"/><path d="M145.5,285.36c-.81-.61-2.13-1-1.17-2.43C144.79,283.7,145.73,284.25,145.5,285.36Z"/><path d="M179.42,269.85a3.38,3.38,0,0,1-2.11-1.2c-.34-.34-.34-.67.23-.8C178.22,268.46,179.28,268.72,179.42,269.85Z"/><path d="M181.63,271.83c.05-.47-1.52-.66-.23-1.33.6.44,1.43.54,1.9,1.42C182.68,272.19,182.16,272.4,181.63,271.83Z"/><path d="M184.49,272.5a3.39,3.39,0,0,1,3,1.13A3,3,0,0,1,184.49,272.5Z"/><path d="M150.8,289.62c.41.56,1.43.52,1.48,1.51-1,.28-1.41-.7-2.17-.83C149.68,289.4,150.18,289.44,150.8,289.62Z"/><path class="cls-10" d="M147.73,288.41c-.26-.71-1.51-.86-1.1-2,.87.19,1.21,1.06,1.9,1.5a.4.4,0,0,1,.05.65C148.27,288.85,148,288.55,147.73,288.41Z"/><path class="cls-10" d="M207.62,255.94c0-.45-.26-.95.39-1.17a6.15,6.15,0,0,1,1.05,2.7C208,257.27,208.13,256.33,207.62,255.94Z"/><path d="M172.9,263.36a2.63,2.63,0,0,1-1.5-2.71C172.26,261.35,173.08,262.08,172.9,263.36Z"/><path class="cls-7" d="M204.89,239.72c-1-1-1-1.77,0-2.67Z"/><path class="cls-11" d="M176,266.75a2.46,2.46,0,0,1-2.22-2.23C175,264.73,175.39,265.83,176,266.75Z"/><path class="cls-11" d="M194.45,274.9c.38.41,1.16.11,1.55,1.13-1.08-.26-2.17.35-2.62-1.11Z"/><path d="M205.25,244.32c-1.27-.81-1-1.85-.43-2.92A4.75,4.75,0,0,1,205.25,244.32Z"/><path class="cls-9" d="M209.46,258.89a2.54,2.54,0,0,1,1.44,2.42A2.89,2.89,0,0,1,209.46,258.89Z"/><path class="cls-12" d="M207.22,253.25c-1.21-1.37-1.3-1.92-.43-2.64C206.77,251.51,207.5,252.3,207.22,253.25Z"/><path class="cls-5" d="M105.73,179.51c1.1-.29,2.2-.52,3.14.42C107.76,180.25,106.64,180.65,105.73,179.51Z"/><path class="cls-7" d="M138.16,181c.87-1.45,2-.69,3.07-.36C140.3,181.54,139.2,181.05,138.16,181Z"/><path class="cls-13" d="M133.45,180.69a2.9,2.9,0,0,1,3.14,0A2.88,2.88,0,0,1,133.45,180.69Z"/><path d="M128.89,180.29c1,0,2.13-.48,3.06.38C130.86,181,129.74,181.74,128.89,180.29Z"/><path class="cls-10" d="M170.17,180.28a2.89,2.89,0,0,1,3.11,0A3,3,0,0,1,170.17,180.28Z"/><path d="M119.67,179.91c1,.12,2.09-.24,3,.38C121.6,180.91,120.52,181.32,119.67,179.91Z"/><path d="M115.07,179.91h3C117.07,181.18,116.07,180.89,115.07,179.91Z"/><path d="M179.39,179.92a2.75,2.75,0,0,1,3.16,0A3.28,3.28,0,0,1,179.39,179.92Z"/><path d="M184.09,179.88c.91-1.09,2-.87,3.08-.36C186.23,180.36,185.15,180.06,184.09,179.88Z"/><path d="M165.62,180.6c1-.83,2-1.18,3,.07A5.56,5.56,0,0,1,165.62,180.6Z"/><path class="cls-14" d="M101.53,179.85c.88-1.09,1.75-1.21,2.61,0Z"/><path class="cls-15" d="M142.78,181c1-1,1.76-1,2.7,0Z"/><path class="cls-15" d="M147.41,181.05c1-1,1.75-1,2.7,0Z"/><path class="cls-16" d="M156.71,181c.85-1.14,1.71-1.21,2.58,0Z"/><path class="cls-17" d="M152,181.05c.93-1,1.77-1,2.68,0Z"/><path class="cls-9" d="M110.75,180.26c.89-1.17,1.78-1,2.66,0Z"/><path d="M161.36,181c.74-1.38,1.68-1.06,2.67-.31C163.19,181.26,162.26,181,161.36,181Z"/><path class="cls-18" d="M124.27,180.29a7.22,7.22,0,0,1,3.07,0C126.31,181.38,125.29,181.1,124.27,180.29Z"/><path class="cls-5" d="M148.66,217.29c1.8-.71,1.8-.71,3.13-.19C150.88,217.91,150,217.78,148.66,217.29Z"/><path class="cls-5" d="M153.35,216.83c1.19-.5,2-.79,3-.32C155.31,217.51,155.29,217.51,153.35,216.83Z"/><path class="cls-5" d="M161.3,216.47c-1.31.31-2.11.69-3.38,0C159.14,215.84,160,215.58,161.3,216.47Z"/><path class="cls-19" d="M170.53,215.08a3.32,3.32,0,0,1-3.08.58C168.32,214.77,169.19,214.86,170.53,215.08Z"/><path d="M174.61,214.55a3.12,3.12,0,0,1-2.7.52A2,2,0,0,1,174.61,214.55Z"/><path d="M111.63,218.16c1.43-.44,2.28-.58,3.37.09A4.18,4.18,0,0,1,111.63,218.16Z"/><path d="M107.1,218.22a4,4,0,0,1,3.44-.08A4.44,4.44,0,0,1,107.1,218.22Z"/><path d="M147,217.32a2.45,2.45,0,0,1-2.73.22A2.56,2.56,0,0,1,147,217.32Z"/><path d="M179.6,213.59a3.16,3.16,0,0,1-2.86.69C177.42,213.43,178.27,213.44,179.6,213.59Z"/><path d="M124.36,218.21a5.78,5.78,0,0,1-3.49.1A3.46,3.46,0,0,1,124.36,218.21Z"/><path d="M119.85,218.23a4.35,4.35,0,0,1-3.25.06C117.57,217.51,118.43,217.7,119.85,218.23Z"/><path class="cls-6" d="M103.07,218.11a3,3,0,0,1,2.71-.1A2.39,2.39,0,0,1,103.07,218.11Z"/><path class="cls-20" d="M126,218.16a3.13,3.13,0,0,1,2.67-.25C127.73,218.86,126.84,218.44,126,218.16Z"/><path d="M133.07,218a2.57,2.57,0,0,1-2.69.17A2.52,2.52,0,0,1,133.07,218Z"/><path class="cls-9" d="M139.89,217.75a2.45,2.45,0,0,1,2.43-.19A2.12,2.12,0,0,1,139.89,217.75Z"/><path d="M98.48,218a3,3,0,0,1,2.75,0A2.54,2.54,0,0,1,98.48,218Z"/><path d="M96.18,217.79a2.17,2.17,0,0,1-2.4.13C94.62,217.08,95.4,217.54,96.18,217.79Z"/><path class="cls-21" d="M162.52,216.16a4,4,0,0,1,3.38-.48A4.57,4.57,0,0,1,162.52,216.16Z"/><path class="cls-5" d="M138.23,217.7a4.34,4.34,0,0,1-3.27.37C136.08,217.22,136.88,217.37,138.23,217.7Z"/><path d="M131.8,239.54c.16-.4.17-.48.21-.5a3.2,3.2,0,0,1,2.46-.6c.07,0,.14.29.11.32A4.43,4.43,0,0,1,131.8,239.54Z"/><path d="M108.05,247.89c-.81,0-1.51.83-2.39.32a2.86,2.86,0,0,1,2.23-1.14C108.85,247,108.49,247.51,108.05,247.89Z"/><path class="cls-5" d="M130.07,239.81a2.26,2.26,0,0,1-2.47.81A2.35,2.35,0,0,1,130.07,239.81Z"/><path d="M143.87,236.14c-1.17.83-2,1.13-3.15.73A3.31,3.31,0,0,1,143.87,236.14Z"/><path class="cls-11" d="M104.13,248.64c-.45,1.43-1.49,1.45-2.68,1.13A5.13,5.13,0,0,1,104.13,248.64Z"/><path class="cls-19" d="M158.62,233.16c.79-1.11,1.92-.76,3-.68C160.79,233.52,159.7,233.33,158.62,233.16Z"/><path class="cls-9" d="M112.64,245.62a2.92,2.92,0,0,1-2.73,1A3,3,0,0,1,112.64,245.62Z"/><path class="cls-13" d="M149.8,234.75a2.67,2.67,0,0,1,2.68-.61A2.3,2.3,0,0,1,149.8,234.75Z"/><path d="M139,237.41a3.46,3.46,0,0,1-2.73.75A2.58,2.58,0,0,1,139,237.41Z"/><path d="M145.45,235.85a2.59,2.59,0,0,1,2.72-.75C147.32,236.18,146.31,235.76,145.45,235.85Z"/><path class="cls-22" d="M151.28,255.7a3.26,3.26,0,0,1,2.56-1.65C153.44,254.93,152.73,255.41,151.28,255.7Z"/><path class="cls-12" d="M146.18,258.71c-.35,1.17-.88,2.07-2.34,1.46A7.8,7.8,0,0,1,146.18,258.71Z"/><path class="cls-11" d="M116.9,244.1a3.53,3.53,0,0,1-2.71,1.05A2.46,2.46,0,0,1,116.9,244.1Z"/><path class="cls-23" d="M123.1,242a3.08,3.08,0,0,1,2.85-1A3,3,0,0,1,123.1,242Z"/><path class="cls-14" d="M142.38,261.33c0,1.26-1,1.59-2.21,2.09.36-1.21,1.33-1.43,1.85-2Z"/><path class="cls-19" d="M118.68,243.63a2.63,2.63,0,0,1,2.55-1.07A2.9,2.9,0,0,1,118.68,243.63Z"/><path class="cls-8" d="M154.26,234a1.88,1.88,0,0,1,2.81-.41A4.49,4.49,0,0,1,154.26,234Z"/><path class="cls-22" d="M149.72,257.13c-.66.26-1.21.79-2,.81.13-1,1.12-1.06,1.7-1.58.18-.16.53-.19.58.15S149.83,256.92,149.72,257.13Z"/><path d="M197.44,276a3.35,3.35,0,0,1,3.28.36C199.57,277,198.75,276.59,197.44,276Z"/><path d="M211.67,262.78a3.09,3.09,0,0,1,1.87,2.67A3.66,3.66,0,0,1,211.67,262.78Z"/><path d="M214.61,266.67c.68.63,1.58,1.07,1.69,2.35C215.16,268.42,214.53,267.78,214.61,266.67Z"/><path class="cls-10" d="M156.61,293.06a2.54,2.54,0,0,1-2.6-1C155,291.78,155.72,292.19,156.61,293.06Z"/><path class="cls-6" d="M219.24,272.23a3.14,3.14,0,0,1-2.08-2.1C218.38,270.37,218.77,271.08,219.24,272.23Z"/><path class="cls-3" d="M90.29,174.86C89.65,166,89,157,88.35,148.13a18.59,18.59,0,0,0-3.61-9.22c-1-1.41-2.25-1.31-3.6-1a2.77,2.77,0,0,0-2.49,2.5c-.87,6-1.9,12.06-2.31,18.16,0,.59.12,1.53-.77,1.5-1.08,0-.75-1.06-.69-1.67a129.51,129.51,0,0,1,3.33-19.75c.57-2.19,4.56-3.15,6.47-1.54a10.2,10.2,0,0,1,3.65,6.19c2,12,4.42,23.91,3.46,36.16-.84.11-.84-.5-.94-1.06C90.64,177.22,90.57,176,90.29,174.86Z"/><path class="cls-3" d="M96,193c-.49.65-.72,1.48-1.47,1.93A50.11,50.11,0,0,0,94.63,184a127.23,127.23,0,0,1-.17-15A49.68,49.68,0,0,0,92,150.19c-1.64-4.52-2-9.42-3.92-13.86.72-.34.75.43,1.1.68a4,4,0,0,1,.52,1.23c.28,4.91,2.83,9,4.8,13.29a22.15,22.15,0,0,1,2,8.72,93.89,93.89,0,0,1-1.14,16.67,11.75,11.75,0,0,0,.09,4.18A44.2,44.2,0,0,1,96,193Z"/><path class="cls-3" d="M92.14,198.44c.82-17.71,1.5-35.41-2.7-52.88,2.4,6.53,4.48,13.05,4.33,20.11-.17,7.38-.25,14.77.31,22.15A36.89,36.89,0,0,1,93.29,198C92.73,199,92.57,199.07,92.14,198.44Z"/><path class="cls-4" d="M92.14,198.44c.54.24.79-.26,1.15-.47a129.53,129.53,0,0,1-5.09,17.59A6.43,6.43,0,0,1,84,219.75c-1.49.48-2.46.13-3-1.43-2.18-6.4-4.31-12.8-5.39-19.5h0c.91.43.91,1.36,1.1,2.14,1.05,4.51,2.19,9,3.63,13.39.36,1.1.37,2.67,1.92,2.83a4.41,4.41,0,0,0,4.31-2,34.47,34.47,0,0,0,3.32-7.57A41.61,41.61,0,0,0,92.14,198.44Z"/><path class="cls-3" d="M72.57,162.85c.66-5.54,1.07-11.12,2.25-16.59.64-2.95,1.44-5.86,2-8.82.4-2,1.53-2.85,3.49-3.2,4-.7,6.28.45,7.63,4.26A4.34,4.34,0,0,1,88.5,141a22.53,22.53,0,0,0-2.59-3.8c-1.6-1.87-3.55-1.63-5.66-1.24-1.93.35-2.53,1.59-2.93,3.29A122.91,122.91,0,0,0,74,160.7c0,.93.3,2.24-1.4,2.16Z"/><path class="cls-3" d="M77.66,159.72a3.6,3.6,0,0,1-.43-2.77c.53-5.37,1.2-10.72,2.15-16a2.72,2.72,0,0,1,2.29-2.44c1.3-.34,2,.22,2.69,1.23a19.14,19.14,0,0,1,3.31,12.79c-.52-2-1.06-3.9-1.54-5.86a11.72,11.72,0,0,0-1.19-3c-.58-1-.79-2.36-2.57-2s-2.8.92-3,3c-.53,4.73-1.37,9.41-1.49,14.18A4.75,4.75,0,0,1,77.66,159.72Z"/><path class="cls-4" d="M89.13,137l-1.1-.68c-3.25-4.26-6-3.42-10.08-2.14-1,.33-1.12,1.32-1.53,2.08l-.43-.38c.16-3.14.56-3.57,4-4.36C84.56,130.47,88.08,132.57,89.13,137Z"/><path class="cls-4" d="M90.29,174.86l1.5,4.6c.13,3.58.27,7.16.39,10.75a5.17,5.17,0,0,1-.31,2.46c-1.14-.54-.1-1.51-.47-2-.22.63.42,1.92-1.13,2C90.32,186.71,90.8,180.79,90.29,174.86Z"/><path class="cls-3" d="M90.27,192.64c.76-1.14.83-2.53,1.6-3.79v3.82c-.15,2.86-.12,5.75-1.2,8.49-.56,0-.85,1.35-1.62.33C89.46,198.54,89.86,195.59,90.27,192.64Z"/><path class="cls-4" d="M87.92,203.41c-.78,3.27-.91,6.8-3.64,9.3-.54.5-1.07,1.4-1.92.82s-.71-1.72-.82-2.66c0-.35.35-.49.69-.51,3-.15,3.8-2.45,4.59-4.73.29-.84.47-1.72.71-2.59C87.78,203,87.78,203.29,87.92,203.41Z"/><path class="cls-3" d="M86.4,204.21c-.3,0-.71.21-.86-.12-.36-.77.83-3.24,1.72-3.72C87,201.65,86.69,202.93,86.4,204.21Z"/><path class="cls-3" d="M87.92,203.41l-.39-.37.81-5.63C88.8,199.47,88.22,201.43,87.92,203.41Z"/><path class="cls-24" d="M139.08,264.08a2.8,2.8,0,0,1-2.26,1.82A3.12,3.12,0,0,1,139.08,264.08Z"/></g></svg>
