<svg xmlns="http://www.w3.org/2000/svg" xmlns:xlink="http://www.w3.org/1999/xlink" viewBox="0 0 300.47 425.2"><defs><style>.cls-1{fill:none;stroke-miterlimit:10;stroke-width:2px;stroke:url(#Or_radial);}.cls-2{fill:url(#Dégradé_sans_nom_13);}.cls-3,.cls-8{fill:#1d1d1b;}.cls-3{opacity:0.1;}.cls-4{fill:#818282;}.cls-5{fill:#e1e3e7;}.cls-6{fill:#4c4c4b;}.cls-7{fill:#bbbcbc;}.cls-8{opacity:0.2;}.cls-9{fill:url(#Or_radial-2);}.cls-10{fill:url(#Or_radial-3);}.cls-11{fill:url(#Or_radial-4);}.cls-12{fill:url(#Or_radial-5);}.cls-13{fill:url(#Dégradé_sans_nom_8);}</style><radialGradient id="Or_radial" cx="151.04" cy="214.27" r="68.52" gradientUnits="userSpaceOnUse"><stop offset="0" stop-color="#fffad2"/><stop offset="0.11" stop-color="#fcf2c1"/><stop offset="0.34" stop-color="#f3df94"/><stop offset="0.37" stop-color="#f2dc8e"/><stop offset="0.69" stop-color="#f0bf00"/><stop offset="1" stop-color="#c9961a"/></radialGradient><radialGradient id="Dégradé_sans_nom_13" cx="279.22" cy="198.62" r="66.37" gradientTransform="matrix(-1, 0, 0, 1, 379.38, 0)" gradientUnits="userSpaceOnUse"><stop offset="0.52" stop-color="#f0bf00"/><stop offset="1" stop-color="#c9961a"/></radialGradient><radialGradient id="Or_radial-2" cx="199.46" cy="169.29" r="16.64" gradientTransform="matrix(-1, 0, 0, 1, 379.38, 0)" xlink:href="#Or_radial"/><radialGradient id="Or_radial-3" cx="199.33" cy="191.7" r="18.43" gradientTransform="matrix(-1, 0, 0, 1, 379.38, 0)" xlink:href="#Or_radial"/><radialGradient id="Or_radial-4" cx="200.43" cy="213.85" r="16.64" gradientTransform="matrix(-1, 0, 0, 1, 379.38, 0)" xlink:href="#Or_radial"/><radialGradient id="Or_radial-5" cx="199.43" cy="234.01" r="13.01" gradientTransform="matrix(-1, 0, 0, 1, 379.38, 0)" xlink:href="#Or_radial"/><radialGradient id="Dégradé_sans_nom_8" cx="246.98" cy="179.55" r="39.42" gradientTransform="matrix(-1, 0, 0, 1, 379.38, 0)" gradientUnits="userSpaceOnUse"><stop offset="0" stop-color="#fffad2"/><stop offset="0.11" stop-color="#fcf2c1"/><stop offset="0.34" stop-color="#f3df94"/><stop offset="0.37" stop-color="#f2dc8e"/><stop offset="0.69" stop-color="#f0bf00"/></radialGradient></defs><title>Pierre</title><g id="Pierre"><path class="cls-1" d="M186.92,170.85c-.06-1.46-.06-2.32-.06-2.32l-15.27-33.66-29-9-19.15,24.28-.25.78-5.32,16.13h0L115,175.88v27.87l6.3,45.91h0l15.27,25.64,10.25,16.55L153,301.8h0l17-31.22,2.3-4.21,5.24-9.65s.58-3.19,1.47-7.93c2.52-13.58,7.46-40,7.84-41.24C187.31,206.17,187,179.06,186.92,170.85Z"/><path class="cls-2" d="M17.82,175.68l84,2.46,2-4.46a30,30,0,0,1,18.68-15.13c2.11-.53,29.11-4.77,30.36-5h0l-.33,13.14h29.58c1.13,27.88.5,51.81-8.65,76.67l-44.3.31c-1.05,0-2.05,0-3-.09-11.48-.52-16.08-4.52-23.54-14.36-31.94,7.38-60.88,12.35-84.77,12.12Z"/><path class="cls-3" d="M17.82,225.73a58.08,58.08,0,0,0,9.79,3.45c5.41,1.22,11,.77,16.58.3,11.17-1,22.37-2.13,33.51-3.46,6.74-.81,14.5-2.36,17.52-8.43,2.25-4.43,1-9.78,1.64-14.72A51.85,51.85,0,0,0,102,220.42c1.11,2.24,3.22,4.66,5.44,4.66a3,3,0,0,0,1.35-.31c2.36-1.14,2.3-4.41,2-7q-.75-5.82-.92-11.64a5.66,5.66,0,0,1,.36-2.77c.7-1.44,2.39-2.05,3.89-2.52,10.28-3.3,21.09-7.07,28.05-15.36a27.21,27.21,0,0,1-3.63,14.89c-4.08,7-11.42,12.39-13.2,20.34-1.11,5.05.25,10.26.72,15.42a45.18,45.18,0,0,1,.06,7.45c-11.48-.52-16.08-4.52-23.54-14.36-31.94,7.38-60.88,12.35-84.77,12.12Z"/><path class="cls-4" d="M115,175.87v27.89l6.3,45.9,15.27,25.64L153,301.81l17-31.22,2.3-4.21,5.24-9.65s.58-3.19,1.47-7.93c2.52-13.58,7.46-40,7.84-41.24.45-1.39.14-28.5.06-36.71-.06-1.47-.06-2.32-.06-2.32l-15.27-33.66-29-9-19.15,24.28-.25.78-5.32,16.13Z"/><path class="cls-5" d="M123.19,151l9.56-3.55,12-10.36,11,8.48v23l12-20.52,2,3.91,5.66,10.84,2.3,6.62.58,1.67,2,5.88L172.12,190l-.53,18.62,6.54,14.17-12.06,12.58,9.32,12-.61,1.58L170,261.14l2.36,5.24,5.24-9.65s.58-3.19,1.47-7.93c2.52-13.58,7.46-40,7.84-41.24.45-1.39.14-28.5.06-36.71-.06-1.47-.06-2.32-.06-2.32l-15.27-33.66-29-9-19.15,24.28Z"/><path class="cls-6" d="M170,270.58l-3.22-1.44-6.55-2.75v12.46l-5.12,13.57s-6.82-12.72-8.85-14.75-2.82-11.28-2.82-11.28l2.82-8.79h-8.2l5.77-14.83L128.23,251l.39-12.33-3.54-10.1,2-14.76,8.13-6.69-12-2L122.46,192l7.41-28.73-9.38,10.63-2.62-6.82L115,175.88v27.87l6.3,45.91,15.28,25.64L153,301.8Z"/><path class="cls-6" d="M134.67,240.62l-3-15,7.93-11.76,2.9-15H130l1.64-12L128.38,178l-5.2,2.46,5.5-12.63h9l4.82,22.19s9.62,2.74,8.55,3.56S145.33,224,145.33,224l-8.18,4.64Z"/><path class="cls-7" d="M119.64,175.85l3.54-12.57,3.29-7.65,6.28-2.73s7.66-4.1,8.2-4.92,3-4.92,3-4.92L151,157l-12.27,4.1,5.74,12-6,10.66-6.28-9.57Z"/><polygon class="cls-6" points="143.2 279.38 145.84 268.91 151.82 258.97 147.51 252.72 148.29 243.84 151.82 252.96 159.05 261.61 151.82 271.45 155.92 283.33 151.12 291.97 143.2 279.38"/><polygon class="cls-7" points="171.7 145.79 166.09 163.28 167.19 172.03 163.09 183.78 162 198.26 167.73 186.24 173.47 181.05 176.21 173.12 181.4 167.88 171.7 145.79"/><path class="cls-8" d="M122.33,206.17a8.09,8.09,0,0,0,3.11,2.05,19.49,19.49,0,0,0,6.81,1.36,34.75,34.75,0,0,0,4.08-.11,40.92,40.92,0,0,1,4.16-.33,13,13,0,0,1,1.86.11,6.49,6.49,0,0,1,4.9,3v0a11.72,11.72,0,0,1,.83,4,19.19,19.19,0,0,0,3.58,8.82c1.44,1.91,3.3,3.63,4,5.95a30.93,30.93,0,0,1,.5,4.63,14.22,14.22,0,0,0,5.55,9.46,19.74,19.74,0,0,0,10.39,3.79c.92.09,1.8.09,2.72.09,1.41,0,2.83-.11,4.24-.2,2.52-13.58,7.46-40,7.84-41.24.45-1.39.14-28.5.06-36.71a35.56,35.56,0,0,0-7.15-1.3c-.7-.08-1.39-.14-2.08-.17a83.1,83.1,0,0,0-10.81.23l-4.19.33c-4.32.36-8.65.69-13,1.05-1.94.17-3.94.36-5.9.64a37.14,37.14,0,0,0-5.1,1,20.92,20.92,0,0,0-5.85,2.55,6.22,6.22,0,0,0-.59.36,18.27,18.27,0,0,0-3.57,3.27,29.26,29.26,0,0,0-5.52,10.48.49.49,0,0,1,0,.16,74.6,74.6,0,0,0-1.86,7.68C120.67,200.24,120.28,203.81,122.33,206.17Z"/><path class="cls-9" d="M170,180.8a10.37,10.37,0,0,1-10.55-10.18l0-1.9a10.35,10.35,0,0,1,10.17-10.55l21-.38a9.68,9.68,0,0,1,9.85,9.5l.07,3.93a9,9,0,0,1-8.87,9.19Z"/><path class="cls-10" d="M156.79,191.37l0,1.91a10.36,10.36,0,0,0,8.64,10,8.51,8.51,0,0,0,2.08.16l1.58,0,22.87-.78,2.58-.08a9,9,0,0,0,8.73-9.18l-.05-3.91a9.7,9.7,0,0,0-10-9.5l-11.62.38-14.8.5a8.82,8.82,0,0,0-1.47.17,10.41,10.41,0,0,0-8.56,10.37Z"/><path class="cls-11" d="M158.42,213.27l0,1.91A10.36,10.36,0,0,0,169,225.35h.36l2.5,0,18.77-.34s0,0,0,0a8.9,8.9,0,0,0,6.3-2.77,9.12,9.12,0,0,0,2.55-6.43l-.09-3.91a9.64,9.64,0,0,0-7.4-9.23,10.31,10.31,0,0,0-2.44-.28l-18.65.34-2.3,0a9.23,9.23,0,0,0-3.14.56,10,10,0,0,0-4.13,2.6A10.34,10.34,0,0,0,158.42,213.27Z"/><path class="cls-12" d="M164.19,233.5l0,1.58c.08,4.74,3.71,8.51,8.09,8.43l16.61-.31a6.13,6.13,0,0,0,2.35-.49,7.48,7.48,0,0,0,4.44-7.1l-.06-3.24a7.93,7.93,0,0,0-5-7.41s0,0,0,0a6.55,6.55,0,0,0-2.53-.44l-15.21.25-.89,0a7.21,7.21,0,0,0-2.64.55A8.53,8.53,0,0,0,164.19,233.5Z"/><path class="cls-3" d="M158.15,186.1a10.22,10.22,0,0,0-1.36,5.27l0,1.91a10.36,10.36,0,0,0,8.64,10,10,10,0,0,0-4.13,2.6,10.34,10.34,0,0,0-2.91,7.38l0,1.91A10.36,10.36,0,0,0,169,225.35h.36a8.53,8.53,0,0,0-5.15,8.15l0,1.58c.08,4.74,3.71,8.51,8.09,8.43l16.61-.31a6.13,6.13,0,0,0,2.35-.49l-15.22-3.66a14.69,14.69,0,0,1-5-1.94,7.25,7.25,0,0,1-.81-10.59,7.43,7.43,0,0,1,1.61-1.22,10,10,0,0,1,1-.53c2.6-1.08,5.73-1.22,8.51-2a34.77,34.77,0,0,1-10.26-2.58,16,16,0,0,1-6.35-4.38,7.47,7.47,0,0,1-1.36-7.29,8,8,0,0,1,2.69-3.3,14.44,14.44,0,0,1,3-1.8,18.39,18.39,0,0,1,1.78-.72,44.52,44.52,0,0,1,9.62-1.8c-5.13-1.39-11.34-.75-15-4.63a17.25,17.25,0,0,1-2-2.86,6.58,6.58,0,0,1,.75.14c1.83.41,3.63,1,5.52,1.27a13.88,13.88,0,0,0,11.11-3.65c2.06-2,3.5-4.91,2.69-7.63a4.24,4.24,0,0,0-2.08-2.58,2.84,2.84,0,0,0-1-.3,6.89,6.89,0,0,0-2.63.55,19.19,19.19,0,0,1-11.78.06,5.83,5.83,0,0,1-.7-.25c-2.3-.8-4.49-1.91-6.9-2.19a2.72,2.72,0,0,0-1.77.28,2.93,2.93,0,0,0-.92,1.19c-.47.86-.89,1.72-1.33,2.6Z"/><path class="cls-13" d="M83.08,205.48l21.4-.23c32.35,3.5,38-26.22,38-26.22l3.57-.61a6,6,0,0,1,4.86,1.36l3.57,3.1,3.72,3.22.83.72a13.91,13.91,0,0,0,19.76-1.55l1.42-1.66a6.27,6.27,0,0,0,1.35-2.67,1.43,1.43,0,0,0,.11-.61,6.46,6.46,0,0,0-2.19-6l-8.7-7.62-13-11.31a7.33,7.33,0,0,0-5-1.83h0c-1.25.22-28.25,4.46-30.36,5a30,30,0,0,0-18.68,15.13l-2,4.46L90.92,178l0,.16Z"/></g></svg>
